<svg xmlns="http://www.w3.org/2000/svg" xmlns:xlink="http://www.w3.org/1999/xlink" version="1.1" id="Layer_1" x="0px" y="0px" width="100%" viewBox="0 0 1024 1024" enable-background="new 0 0 1024 1024" xml:space="preserve">

	<path fill="#0F0F0F" opacity="1.000000" stroke="none" d=" M1025.000000,736.531372   C1005.339661,737.000061 985.678528,737.097107 966.019775,736.918335   C962.088501,736.882629 960.766113,738.000488 960.916199,741.993896   C961.203918,749.647217 960.899292,757.320984 961.047363,764.982300   C961.105835,768.006958 960.057495,769.103760 957.005371,769.048462   C948.844055,768.900635 940.678223,768.999817 932.514221,768.999878   C858.871338,769.000000 785.228455,768.999573 711.585571,769.000916   C705.008301,769.001038 705.004944,769.006531 705.000916,775.423218   C704.996765,782.087769 704.752747,788.764771 705.088440,795.412354   C705.306091,799.723145 704.111389,801.174927 699.572205,801.107178   C681.915161,800.843689 664.250183,801.129639 646.592041,800.906555   C642.308777,800.852478 640.647583,801.855164 640.899231,806.424133   C641.283569,813.400696 640.758728,820.425476 641.088989,827.407593   C641.292419,831.709717 640.122131,833.163635 635.577454,833.107849   C616.420593,832.872803 597.258667,833.040344 577.573975,833.050781   C577.049377,833.041138 576.911682,832.911865 576.950562,832.450317   C576.989380,821.729248 576.989380,811.469666 576.989380,800.752991   C588.052124,800.752991 598.456055,800.752991 609.309326,800.752991   C609.309326,768.555298 609.309326,736.826660 609.309326,704.809326   C620.057190,704.809326 630.336426,704.809326 640.726074,704.809326   C640.726074,683.451172 640.726074,662.389771 640.726074,640.859253   C630.057190,640.859253 619.653320,640.859253 608.914978,640.859253   C608.914978,619.249695 608.914978,598.109253 609.391846,576.982910   C620.144897,576.997070 630.421021,576.997070 641.101318,576.997070   C641.101318,587.898682 641.101318,598.308777 641.101318,608.734985   C683.917358,608.734985 726.320984,608.734985 768.726440,608.734985   C768.726440,576.732056 768.726440,544.994934 768.726440,512.847473   C758.048889,512.847473 747.638733,512.847473 736.830017,512.847473   C736.830017,502.030945 736.830017,491.620605 736.830017,481.299500   C704.679810,481.299500 672.942505,481.299500 640.795593,481.299500   C640.795593,492.004547 640.795593,502.414978 640.795593,513.221924   C629.977783,513.221924 619.567444,513.221924 609.033569,513.221924   C609.033569,534.784851 609.033569,555.936157 608.564209,577.049072   C597.830139,577.010559 587.565491,577.010559 577.293945,577.010559   C577.293945,544.717468 577.293945,513.002563 577.293945,480.825378   C587.979797,480.825378 598.379456,480.825378 609.225342,480.825378   C609.225342,469.967926 609.225342,459.568390 609.225342,448.723877   C620.084045,448.723877 630.483582,448.723877 640.781250,448.723877   C640.781250,437.984375 640.781250,427.710266 640.781250,416.975708   C630.175110,416.975708 619.776917,416.975708 608.924988,416.975708   C608.924988,406.122894 608.924988,395.723267 608.924988,384.881592   C587.408569,384.881592 566.351318,384.881592 544.838257,384.881592   C544.838257,374.033417 544.838257,363.633850 544.838257,353.251892   C543.901062,353.131561 543.420593,353.015686 542.940125,353.015808   C468.989532,353.034454 395.038940,353.061462 321.023682,353.019226   C320.958984,352.950348 320.834198,352.808411 320.834198,352.808411   C320.889465,344.146576 321.183868,335.476929 320.901733,326.826111   C320.754944,322.327209 321.959717,320.852234 326.687775,320.889709   C354.844910,321.112762 383.004730,321.000000 411.163635,321.000000   C463.649200,321.000000 516.134766,320.981934 568.620300,321.016449   C578.205627,321.022766 576.898254,319.805542 576.990662,329.628723   C577.042358,335.126709 576.998474,340.625610 577.000366,346.124084   C577.002686,352.997467 577.003906,352.999176 584.133240,352.999634   C600.628662,353.000732 617.124146,352.983337 633.619568,353.007019   C641.857605,353.018829 640.950012,352.230988 640.994080,360.628479   C641.024719,366.460052 640.998474,372.291901 641.000366,378.123627   C641.002625,384.993988 641.003906,384.996155 647.632935,384.999359   C653.797913,385.002319 659.962830,384.998474 666.127808,385.000427   C672.994080,385.002563 672.998169,385.003937 672.999207,391.637085   C673.001648,408.132538 672.973022,424.628082 673.010986,441.123444   C673.031067,449.842072 672.021057,448.982269 680.632202,448.990417   C707.958008,449.016327 735.283813,448.998383 762.609619,449.001190   C768.993835,449.001831 768.996216,449.008698 768.999329,455.619049   C769.002441,462.117249 769.319092,468.636292 768.897034,475.106964   C768.571228,480.102051 770.449951,481.364563 775.128784,481.094025   C781.605347,480.719482 788.119751,480.996582 794.617981,481.000977   C800.993958,481.005280 800.998840,481.008759 800.999146,487.627411   C801.000854,525.783569 800.999390,563.939697 801.000427,602.095886   C801.000610,608.997375 801.003723,608.999573 808.104980,608.999634   C867.588623,609.000244 927.072266,608.999268 986.555908,609.001038   C992.993225,609.001221 992.995911,609.008057 992.999268,615.565247   C993.002808,622.563293 993.167480,629.567017 992.931763,636.557129   C992.810730,640.147827 994.157776,641.134460 997.571289,641.062134   C1006.398254,640.875000 1015.231812,640.999756 1024.531372,641.000000   C1025.000000,672.687561 1025.000000,704.375122 1025.000000,736.531372  M928.973450,735.223572   C928.973450,725.283752 928.973450,715.343994 928.973450,704.854065   C950.622681,704.854065 971.672913,704.854065 992.757202,704.854065   C992.757202,694.029724 992.757202,683.766724 992.757202,672.943726   C982.137695,672.943726 971.746277,672.943726 960.810059,672.943726   C960.810059,661.999756 960.810059,651.607910 960.810059,641.242188   C875.333740,641.242188 790.420654,641.242188 705.309021,641.242188   C705.309021,651.866638 705.309021,662.247131 705.309021,673.178223   C747.991455,673.178223 790.368042,673.178223 832.744507,673.178223   C832.744507,683.996033 832.744507,694.259277 832.744507,705.067627   C779.452026,705.067627 726.411743,705.067627 673.375244,705.067627   C673.375244,716.002563 673.375244,726.384644 673.375244,736.811768   C674.399170,736.892395 675.053650,736.989014 675.708191,736.989075   C758.849304,736.997192 841.990356,737.001892 925.131470,736.964966   C926.367676,736.964417 927.603638,736.442810 928.973450,735.223572  z"/>
	<path fill="#0F0F0F" opacity="1.000000" stroke="none" d=" M577.120300,833.103516   C577.127380,842.154419 576.915222,851.145508 577.072937,860.130127   C577.135864,863.716309 576.237244,865.079956 572.363220,865.075195   C490.102203,864.975281 407.841003,864.974060 325.579956,865.077332   C321.630096,865.082275 320.859009,863.588013 320.933502,860.073181   C321.117035,851.418884 320.959747,842.757263 320.949158,833.573975   C320.958862,833.049377 321.088165,832.911682 321.549622,832.950562   C353.999023,832.992920 385.986969,833.008789 417.974884,832.997253   C470.953827,832.978088 523.932739,832.941223 576.911682,832.911865   C576.911682,832.911865 577.049377,833.041138 577.120300,833.103516  z"/>
	<path fill="#0F0F0F" opacity="1.000000" stroke="none" d=" M160.808289,673.165771   C151.823257,673.110413 142.835419,672.905579 133.854553,673.073242   C130.253265,673.140442 128.915268,672.207214 128.924088,668.352051   C129.039230,618.088989 129.027252,567.825500 128.941696,517.562378   C128.935898,514.156006 129.862000,512.849243 133.440964,512.929443   C142.256699,513.127136 151.080643,512.959961 160.425934,512.949158   C160.950607,512.958801 161.088379,513.088135 161.049484,513.549622   C161.036438,566.977966 161.062286,619.944763 161.019226,672.976318   C160.950302,673.041016 160.808289,673.165771 160.808289,673.165771  z"/>
	<path fill="#0F0F0F" opacity="1.000000" stroke="none" d=" M256.834198,384.808411   C256.889496,376.002106 257.211487,367.186066 256.890503,358.393494   C256.723511,353.818695 258.350922,352.865845 262.596252,352.908234   C281.707062,353.099060 300.821167,352.960876 320.384155,352.874847   C320.834198,352.808411 320.958984,352.950348 320.984741,353.480713   C321.010529,364.256226 321.010529,374.501373 321.010529,385.088135   C299.288757,385.088135 278.188538,385.088135 257.023682,385.019226   C256.958984,384.950348 256.834198,384.808411 256.834198,384.808411  z"/>
	<path fill="#0F0F0F" opacity="1.000000" stroke="none" d=" M320.896484,833.120300   C301.392761,833.127441 281.950256,832.931763 262.510925,833.100891   C258.134827,833.138916 256.725494,831.969360 256.898712,827.521606   C257.228241,819.059631 256.959686,810.574341 256.949219,801.574097   C256.958954,801.049438 257.088287,800.911804 257.549805,800.950623   C278.905823,800.989441 299.800293,800.989441 321.088165,800.989441   C321.088165,812.013489 321.088165,822.462585 321.088165,832.911682   C321.088165,832.911682 320.958862,833.049377 320.896484,833.120300  z"/>
	<path fill="#0F0F0F" opacity="1.000000" stroke="none" d=" M192.808289,737.165771   C184.002014,737.110474 175.186005,736.788513 166.393463,737.109497   C161.818619,737.276489 160.865906,735.648865 160.908279,731.403687   C161.099030,712.292908 160.960831,693.178833 160.874756,673.615845   C160.808289,673.165771 160.950302,673.041016 161.480682,673.015198   C172.256226,672.989380 182.501373,672.989380 193.088135,672.989380   C193.088135,694.711182 193.088135,715.811401 193.019226,736.976318   C192.950302,737.041016 192.808289,737.165771 192.808289,737.165771  z"/>
	<path fill="#0F0F0F" opacity="1.000000" stroke="none" d=" M160.879639,512.896484   C160.872482,493.392731 161.068222,473.950165 160.899124,454.510834   C160.861053,450.134705 162.030746,448.725464 166.478455,448.898712   C174.940430,449.228302 183.425720,448.959656 192.425980,448.949158   C192.950638,448.958832 193.088379,449.088135 193.049469,449.549622   C193.010559,470.905609 193.010559,491.800110 193.010559,513.088135   C181.986572,513.088135 171.537476,513.088135 161.088379,513.088135   C161.088379,513.088135 160.950607,512.958801 160.879639,512.896484  z"/>
	<path fill="#0F0F0F" opacity="1.000000" stroke="none" d=" M192.879684,448.896484   C192.872818,439.710297 193.078674,430.584137 192.929367,421.463745   C192.871735,417.943878 194.067902,416.865295 197.517212,416.934906   C206.308365,417.112366 215.106171,416.959869 224.425980,416.949127   C224.950638,416.958832 225.088379,417.088135 225.049469,417.549622   C225.010559,428.248474 225.010559,438.485840 225.010559,449.088135   C213.971466,449.088135 203.529922,449.088135 193.088379,449.088135   C193.088379,449.088135 192.950638,448.958832 192.879684,448.896484  z"/>
	<path fill="#0F0F0F" opacity="1.000000" stroke="none" d=" M224.808289,769.165771   C215.682785,769.110168 206.554703,768.909058 197.433090,769.071899   C193.871033,769.135498 192.870743,767.859619 192.936935,764.451599   C193.107666,755.659668 192.961075,746.861572 192.874756,737.615845   C192.808289,737.165771 192.950302,737.041016 193.480682,737.015198   C204.248474,736.989380 214.485855,736.989380 225.088135,736.989380   C225.088135,748.028503 225.088135,758.470093 225.019226,768.976318   C224.950302,769.041016 224.808289,769.165771 224.808289,769.165771  z"/>
	<path fill="#0F0F0F" opacity="1.000000" stroke="none" d=" M224.879684,416.896484   C224.872818,407.705475 225.081497,398.574310 224.928329,389.449280   C224.868820,385.904663 226.107025,384.867950 229.535904,384.935883   C238.331879,385.110168 247.134247,384.961060 256.384125,384.874817   C256.834198,384.808411 256.958984,384.950348 256.984741,385.480713   C257.010529,396.248444 257.010529,406.485840 257.010529,417.088135   C245.971161,417.088135 235.529770,417.088135 225.088379,417.088135   C225.088379,417.088135 224.950638,416.958832 224.879684,416.896484  z"/>
	<path fill="#0F0F0F" opacity="1.000000" stroke="none" d=" M256.896545,801.120361   C247.705490,801.127258 238.574371,800.918701 229.449341,801.071777   C225.904968,801.131226 224.867966,799.893127 224.935944,796.464111   C225.110275,787.668152 224.961090,778.865784 224.874771,769.615845   C224.808289,769.165771 224.950302,769.041016 225.480682,769.015198   C236.248489,768.989380 246.485886,768.989380 257.088287,768.989380   C257.088287,780.028931 257.088287,790.470337 257.088287,800.911804   C257.088287,800.911804 256.958954,801.049438 256.896545,801.120361  z"/>
	<path fill="#FFD558" opacity="1.000000" stroke="none" d=" M257.549805,800.950623   C257.088287,790.470337 257.088287,780.028931 257.088287,768.989380   C246.485886,768.989380 236.248489,768.989380 225.549606,768.950500   C225.088135,758.470093 225.088135,748.028503 225.088135,736.989380   C214.485855,736.989380 204.248474,736.989380 193.549606,736.950500   C193.088135,715.811401 193.088135,694.711182 193.088135,672.989380   C182.501373,672.989380 172.256226,672.989380 161.549622,672.950500   C161.062286,619.944763 161.036438,566.977966 161.049484,513.549622   C171.537476,513.088135 181.986572,513.088135 193.010559,513.088135   C193.010559,491.800110 193.010559,470.905609 193.049469,449.549622   C203.529922,449.088135 213.971466,449.088135 225.010559,449.088135   C225.010559,438.485840 225.010559,428.248474 225.049469,417.549622   C235.529770,417.088135 245.971161,417.088135 257.010529,417.088135   C257.010529,406.485840 257.010529,396.248444 257.049438,385.549622   C278.188538,385.088135 299.288757,385.088135 321.010529,385.088135   C321.010529,374.501373 321.010529,364.256226 321.049438,353.549622   C395.038940,353.061462 468.989532,353.034454 542.940125,353.015808   C543.420593,353.015686 543.901062,353.131561 544.838257,353.251892   C544.838257,363.633850 544.838257,374.033417 544.838257,384.881592   C566.351318,384.881592 587.408569,384.881592 608.924988,384.881592   C608.924988,395.723267 608.924988,406.122894 608.924988,416.975708   C619.776917,416.975708 630.175110,416.975708 640.781250,416.975708   C640.781250,427.710266 640.781250,437.984375 640.781250,448.723877   C630.483582,448.723877 620.084045,448.723877 609.225342,448.723877   C609.225342,459.568390 609.225342,469.967926 609.225342,480.825378   C598.379456,480.825378 587.979797,480.825378 577.293945,480.825378   C577.293945,513.002563 577.293945,544.717468 577.293945,577.010559   C587.565491,577.010559 597.830139,577.010559 608.520264,577.033569   C608.945801,577.056580 608.914978,576.968750 608.914978,576.968750   C608.914978,598.109253 608.914978,619.249695 608.914978,640.859253   C619.653320,640.859253 630.057190,640.859253 640.726074,640.859253   C640.726074,662.389771 640.726074,683.451172 640.726074,704.809326   C630.336426,704.809326 620.057190,704.809326 609.309326,704.809326   C609.309326,736.826660 609.309326,768.555298 609.309326,800.752991   C598.456055,800.752991 588.052124,800.752991 576.989380,800.752991   C576.989380,811.469666 576.989380,821.729248 576.950562,832.450317   C523.932739,832.941223 470.953827,832.978088 417.974884,832.997253   C385.986969,833.008789 353.999023,832.992920 321.549622,832.950562   C321.088165,822.462585 321.088165,812.013489 321.088165,800.989441   C299.800293,800.989441 278.905823,800.989441 257.549805,800.950623  M416.998077,672.068359   C416.998169,663.110901 416.884888,654.151245 417.057678,645.197144   C417.121277,641.899780 415.927338,640.874573 412.721375,640.945312   C404.928864,641.117554 397.125000,641.166138 389.335876,640.929016   C385.654968,640.816956 384.884857,642.353333 384.944122,645.638367   C385.108673,654.758789 385.004761,663.883972 384.068726,673.002869   C373.710175,673.004333 363.351624,673.005798 352.998077,672.068359   C352.998169,663.110901 352.884857,654.151245 353.057648,645.197144   C353.121277,641.899780 351.927338,640.874512 348.721375,640.945312   C340.928864,641.117554 333.125000,641.166138 325.335876,640.929016   C321.654968,640.816956 320.884857,642.353333 320.944153,645.638367   C321.108704,654.758789 321.004761,663.883972 320.068726,673.002869   C309.710175,673.004333 299.351593,673.005859 288.997223,672.069092   C288.998077,642.122620 288.923096,612.175659 289.087097,582.230103   C289.109985,578.059570 287.875336,576.753052 283.734436,576.914978   C276.093109,577.213745 268.430664,577.077576 260.779419,576.962646   C258.011810,576.921143 256.958069,577.896973 256.964111,580.718506   C257.027191,610.165771 257.036713,639.613281 256.951935,669.060425   C256.942993,672.160461 258.094727,673.086365 261.057526,673.045166   C270.372437,672.915466 279.690247,672.994446 289.001923,673.931641   C289.001831,682.889099 289.115143,691.848755 288.942352,700.802856   C288.878723,704.100220 290.072632,705.125488 293.278625,705.054626   C301.071136,704.882385 308.875000,704.833862 316.664124,705.070923   C320.345032,705.182983 321.115143,703.646667 321.055878,700.361633   C320.891327,691.241211 320.995209,682.116028 321.931885,672.998169   C332.290253,672.996338 342.648590,672.994507 353.002777,673.930908   C353.002380,682.888428 353.115326,691.848145 352.942352,700.802307   C352.878662,704.099121 354.071625,705.125488 357.278168,705.054565   C365.070740,704.882263 372.874664,704.833862 380.663849,705.070984   C384.344452,705.183044 385.115173,703.647217 385.055847,700.361877   C384.891266,691.241394 384.995209,682.116089 385.931885,672.998169   C396.290253,672.996338 406.648590,672.994507 417.002777,673.930908   C417.002380,682.888428 417.115387,691.848145 416.942383,700.802307   C416.878723,704.099121 418.071625,705.125488 421.278168,705.054688   C429.070740,704.882385 436.874664,704.833923 444.663849,705.070984   C448.344452,705.183105 449.115173,703.647217 449.055878,700.361877   C448.891296,691.241394 448.995209,682.116089 449.931274,672.997131   C458.748871,672.997925 467.568726,672.883606 476.382874,673.058472   C479.719940,673.124695 481.085052,672.263794 481.069244,668.621155   C480.943146,639.507080 480.959930,610.392029 481.053253,581.277710   C481.063599,578.055725 480.077667,576.858093 476.780579,576.942749   C469.465149,577.130615 462.130280,577.245789 454.825500,576.909363   C450.343872,576.702881 448.854736,577.934143 448.889313,582.669556   C449.109222,612.780823 449.004639,642.894470 448.068115,673.001831   C437.709778,673.003662 427.351410,673.005493 416.998077,672.068359  z"/>
	<path fill="#CB9800" opacity="1.000000" stroke="none" d=" M928.906616,735.693970   C927.603638,736.442810 926.367676,736.964417 925.131470,736.964966   C841.990356,737.001892 758.849304,736.997192 675.708191,736.989075   C675.053650,736.989014 674.399170,736.892395 673.375244,736.811768   C673.375244,726.384644 673.375244,716.002563 673.375244,705.067627   C726.411743,705.067627 779.452026,705.067627 832.744507,705.067627   C832.744507,694.259277 832.744507,683.996033 832.744507,673.178223   C790.368042,673.178223 747.991455,673.178223 705.309021,673.178223   C705.309021,662.247131 705.309021,651.866638 705.309021,641.242188   C790.420654,641.242188 875.333740,641.242188 960.810059,641.242188   C960.810059,651.607910 960.810059,661.999756 960.810059,672.943726   C971.746277,672.943726 982.137695,672.943726 992.757202,672.943726   C992.757202,683.766724 992.757202,694.029724 992.757202,704.854065   C971.672913,704.854065 950.622681,704.854065 928.973450,704.854065   C928.973450,715.343994 928.973450,725.283752 928.906616,735.693970  z"/>
	<path fill="#FFFFFF" opacity="1.000000" stroke="none" d=" M608.989685,577.072021   C609.033569,555.936157 609.033569,534.784851 609.033569,513.221924   C619.567444,513.221924 629.977783,513.221924 640.795593,513.221924   C640.795593,502.414978 640.795593,492.004547 640.795593,481.299500   C672.942505,481.299500 704.679810,481.299500 736.830017,481.299500   C736.830017,491.620605 736.830017,502.030945 736.830017,512.847473   C747.638733,512.847473 758.048889,512.847473 768.726440,512.847473   C768.726440,544.994934 768.726440,576.732056 768.726440,608.734985   C726.320984,608.734985 683.917358,608.734985 641.101318,608.734985   C641.101318,598.308777 641.101318,587.898682 641.101318,576.997070   C630.421021,576.997070 620.144897,576.997070 609.391846,576.982910   C608.914978,576.968750 608.945801,577.056580 608.989685,577.072021  M697.500000,545.000000   C689.404480,545.000000 681.309021,545.000000 673.292786,545.000000   C673.292786,555.983337 673.292786,566.384583 673.292786,576.710266   C694.649963,576.710266 715.713135,576.710266 736.707275,576.710266   C736.707275,566.016785 736.707275,555.615723 736.707275,545.000000   C723.777222,545.000000 711.138611,545.000000 697.500000,545.000000  z"/>
	<path fill="#E5C156" opacity="1.000000" stroke="none" d=" M289.006927,672.992676   C279.690247,672.994446 270.372437,672.915466 261.057526,673.045166   C258.094727,673.086365 256.942993,672.160461 256.951935,669.060425   C257.036713,639.613281 257.027191,610.165771 256.964111,580.718506   C256.958069,577.896973 258.011810,576.921143 260.779419,576.962646   C268.430664,577.077576 276.093109,577.213745 283.734436,576.914978   C287.875336,576.753052 289.109985,578.059570 289.087097,582.230103   C288.923096,612.175659 288.998077,642.122620 288.998596,672.534546   C289.000000,673.000000 289.006927,672.992676 289.006927,672.992676  z"/>
	<path fill="#E5C156" opacity="1.000000" stroke="none" d=" M449.006958,673.007324   C449.004639,642.894470 449.109222,612.780823 448.889313,582.669556   C448.854736,577.934143 450.343872,576.702881 454.825500,576.909363   C462.130280,577.245789 469.465149,577.130615 476.780579,576.942749   C480.077667,576.858093 481.063599,578.055725 481.053253,581.277710   C480.959930,610.392029 480.943146,639.507080 481.069244,668.621155   C481.085052,672.263794 479.719940,673.124695 476.382874,673.058472   C467.568726,672.883606 458.748871,672.997925 449.465637,672.998535   C449.000000,673.000000 449.006958,673.007324 449.006958,673.007324  z"/>
	<path fill="#E5C156" opacity="1.000000" stroke="none" d=" M320.993042,672.992676   C320.995209,682.116028 320.891327,691.241211 321.055878,700.361633   C321.115143,703.646667 320.345032,705.182983 316.664124,705.070923   C308.875000,704.833862 301.071136,704.882385 293.278625,705.054626   C290.072632,705.125488 288.878723,704.100220 288.942352,700.802856   C289.115143,691.848755 289.001831,682.889099 289.004425,673.462158   C289.006927,672.992676 289.000000,673.000000 288.996521,673.003662   C299.351593,673.005859 309.710175,673.004333 320.534363,673.001465   C321.000000,673.000000 320.993042,672.992676 320.993042,672.992676  z"/>
	<path fill="#E5C156" opacity="1.000000" stroke="none" d=" M352.993073,673.007324   C363.351624,673.005798 373.710175,673.004333 384.534363,673.001465   C385.000000,673.000000 384.993042,672.992676 384.993042,672.992676   C384.995209,682.116089 384.891266,691.241394 385.055847,700.361877   C385.115173,703.647217 384.344452,705.183044 380.663849,705.070984   C372.874664,704.833862 365.070740,704.882263 357.278168,705.054565   C354.071625,705.125488 352.878662,704.099121 352.942352,700.802307   C353.115326,691.848145 353.002380,682.888428 353.001404,673.465454   C353.000000,673.000000 352.993073,673.007324 352.993073,673.007324  z"/>
	<path fill="#E5C156" opacity="1.000000" stroke="none" d=" M448.996521,672.996338   C448.995209,682.116089 448.891296,691.241394 449.055878,700.361877   C449.115173,703.647217 448.344452,705.183105 444.663849,705.070984   C436.874664,704.833923 429.070740,704.882385 421.278168,705.054688   C418.071625,705.125488 416.878723,704.099121 416.942383,700.802307   C417.115387,691.848145 417.002380,682.888428 417.001404,673.465454   C417.000000,673.000000 416.993073,673.007324 416.993073,673.007324   C427.351410,673.005493 437.709778,673.003662 448.537537,673.004578   C449.006958,673.007324 449.000000,673.000000 448.996521,672.996338  z"/>
	<path fill="#E5C156" opacity="1.000000" stroke="none" d=" M417.003479,672.996338   C406.648590,672.994507 396.290253,672.996338 385.462463,672.995422   C384.993042,672.992676 385.000000,673.000000 385.003479,673.003662   C385.004761,663.883972 385.108673,654.758789 384.944122,645.638367   C384.884857,642.353333 385.654968,640.816956 389.335876,640.929016   C397.125000,641.166138 404.928864,641.117554 412.721375,640.945312   C415.927338,640.874573 417.121277,641.899780 417.057678,645.197144   C416.884888,654.151245 416.998169,663.110901 416.995575,672.537842   C416.993073,673.007324 417.000000,673.000000 417.003479,672.996338  z"/>
	<path fill="#E5C156" opacity="1.000000" stroke="none" d=" M321.003479,673.003662   C321.004761,663.883972 321.108704,654.758789 320.944153,645.638367   C320.884857,642.353333 321.654968,640.816956 325.335876,640.929016   C333.125000,641.166138 340.928864,641.117554 348.721375,640.945312   C351.927338,640.874512 353.121277,641.899780 353.057648,645.197144   C352.884857,654.151245 352.998169,663.110901 352.995575,672.537842   C352.993073,673.007324 353.000000,673.000000 353.003479,672.996338   C342.648590,672.994507 332.290253,672.996338 321.462463,672.995422   C320.993042,672.992676 321.000000,673.000000 321.003479,673.003662  z"/>
	<path fill="#0F0F0F" opacity="1.000000" stroke="none" d=" M698.000000,545.000000   C711.138611,545.000000 723.777222,545.000000 736.707275,545.000000   C736.707275,555.615723 736.707275,566.016785 736.707275,576.710266   C715.713135,576.710266 694.649963,576.710266 673.292786,576.710266   C673.292786,566.384583 673.292786,555.983337 673.292786,545.000000   C681.309021,545.000000 689.404480,545.000000 698.000000,545.000000  z"/>
	</svg>