<svg xmlns="http://www.w3.org/2000/svg" xmlns:xlink="http://www.w3.org/1999/xlink" version="1.1" id="Layer_1" x="0px" y="0px" width="100%" viewBox="0 0 672 4096" enable-background="new 0 0 672 4096" xml:space="preserve">
	<path fill="#CDCDCD" opacity="1.000000" stroke="none" d=" M513.000000,4097.000000   C374.643341,4097.000000 236.286682,4097.000000 97.465012,4096.561523   C97.000000,2786.586182 97.000031,1477.049561 96.996658,167.512741   C96.996651,165.347366 96.945694,163.181992 97.392395,161.011902   C124.985909,161.004807 152.105576,161.016602 179.225204,160.996536   C215.827148,160.969452 252.429047,160.917862 289.496307,160.914215   C364.281616,160.974106 438.601593,160.996597 512.946533,161.485947   C512.981018,164.452408 512.998779,166.952011 512.998840,169.451630   C513.000000,1478.634399 513.000000,2787.817139 513.000000,4097.000000  M129.000000,3938.500000   C129.000000,3948.830566 128.999985,3959.161133 129.000015,3969.491699   C129.000122,3999.483643 129.086273,4029.475830 128.906860,4059.466797   C128.880188,4063.923828 130.261169,4065.279297 134.618942,4065.085938   C141.769623,4064.768799 148.948975,4064.850586 156.107483,4065.061279   C159.739761,4065.168213 161.177475,4064.026123 161.066025,4060.240479   C160.840607,4052.582520 160.999939,4044.913086 160.999954,4037.248535   C161.000015,3995.093262 160.930344,3952.937988 161.097931,3910.783447   C161.116486,3906.114990 159.685623,3904.692627 155.130798,3904.911377   C148.148834,3905.247314 141.133011,3905.171875 134.143082,3904.932861   C130.293961,3904.801514 128.804703,3905.954346 128.919479,3910.009766   C129.178635,3919.166504 129.000351,3928.335938 129.000000,3938.500000  M161.000000,2071.500000   C160.999084,2065.501709 160.844086,2059.497803 161.055389,2053.506836   C161.181046,2049.944092 159.751282,2048.868896 156.355148,2048.947510   C148.861206,2049.121094 141.356247,2049.149658 133.864288,2048.937256   C130.199707,2048.833496 128.868652,2050.038330 128.933456,2053.787109   C129.123520,2064.780762 129.000092,2075.779785 129.000046,2086.776855   C128.999924,2125.433105 129.099472,2164.089600 128.881714,2202.744629   C128.852539,2207.921875 130.406494,2209.419434 135.399307,2209.098145   C141.704819,2208.692627 148.056229,2209.005127 154.387848,2208.998535   C160.985092,2208.991943 160.997406,2208.987061 160.997986,2202.464844   C161.001831,2159.143311 161.000000,2115.821533 161.000000,2071.500000  M129.000000,271.500000   C129.000137,296.826294 129.101852,322.153412 128.905273,347.478180   C128.870544,351.953613 130.290497,353.275085 134.631027,353.084717   C141.781982,352.771149 148.961121,352.848938 156.119492,353.061371   C159.765488,353.169586 161.154755,351.998077 161.066605,348.228271   C160.856339,339.235687 160.999908,330.234833 160.999939,321.237335   C161.000076,280.581909 160.906448,239.925980 161.116837,199.271652   C161.143494,194.119110 159.633804,192.590149 154.616806,192.899338   C147.977188,193.308502 141.282135,193.234818 134.632538,192.916718   C130.292786,192.709106 128.867203,194.043091 128.904922,198.520706   C129.107040,222.512360 129.000137,246.506638 129.000000,271.500000  M129.000000,3818.500000   C129.000122,3834.827881 129.094437,3851.156982 128.931686,3867.483154   C128.892807,3871.384277 129.719330,3873.271973 134.135193,3873.085938   C141.619476,3872.770264 149.128632,3872.896484 156.623276,3873.043945   C159.814484,3873.106445 161.048996,3872.015625 161.042984,3868.727539   C160.970078,3828.907227 160.969955,3789.086914 161.043030,3749.266602   C161.049072,3745.972656 159.803009,3744.892090 156.617401,3744.956299   C149.289474,3745.104248 141.946808,3745.227051 134.629196,3744.914307   C130.286926,3744.729004 128.862854,3746.048828 128.904755,3750.522949   C129.113770,3772.846924 129.000122,3795.174072 129.000000,3818.500000  M129.000000,1935.500000   C129.000137,1960.824951 129.101425,1986.150513 128.905548,2011.473999   C128.871002,2015.942749 130.280121,2017.271484 134.626221,2017.085205   C141.943741,2016.771851 149.286362,2016.896362 156.614273,2017.043701   C159.796097,2017.107422 161.049149,2016.033447 161.043091,2012.735962   C160.969864,1972.916016 160.970093,1933.095947 161.042969,1893.276001   C161.048981,1889.990479 159.819702,1888.893311 156.626266,1888.956055   C149.131683,1889.103271 141.626968,1889.167969 134.136871,1888.932007   C130.280579,1888.810547 128.854401,1889.973511 128.919067,1894.014893   C129.134995,1907.506836 129.000351,1921.004517 129.000000,1935.500000  M161.000000,2348.500000   C160.999664,2335.671875 160.860245,2322.841553 161.080673,2310.017334   C161.150055,2305.980713 159.728012,2304.809082 155.866608,2304.931396   C148.377167,2305.168701 140.872986,2305.102783 133.378952,2304.955811   C130.190460,2304.893066 128.947006,2305.978760 128.956329,2309.269775   C129.038925,2338.424316 129.039001,2367.578857 128.956299,2396.733398   C128.946945,2400.027588 130.196808,2401.108154 133.382248,2401.043701   C140.709564,2400.895996 148.051575,2400.773438 155.368637,2401.085449   C159.706543,2401.270020 161.170761,2399.961426 161.096695,2395.479492   C160.843521,2380.156738 160.999863,2364.827148 161.000000,2348.500000  M161.000000,2866.500000   C160.999664,2851.672852 160.875748,2836.843750 161.080276,2822.019531   C161.135895,2817.988281 159.734390,2816.808594 155.869064,2816.931396   C148.379684,2817.169922 140.875443,2817.102783 133.381409,2816.956055   C130.195297,2816.893799 128.946976,2817.973877 128.956314,2821.267334   C129.038971,2850.421875 129.038925,2879.576416 128.956299,2908.730957   C128.946976,2912.022705 130.192078,2913.106201 133.379776,2913.043945   C140.873810,2912.896973 148.378021,2912.830811 155.867432,2913.068604   C159.730209,2913.191162 161.144791,2912.016602 161.080551,2907.982178   C160.865768,2894.491211 160.999664,2880.994385 161.000000,2866.500000  M155.331543,1633.000000   C158.135193,1632.976440 161.064819,1633.608887 161.048141,1629.019165   C160.941574,1599.693726 160.967697,1570.367554 161.033600,1541.041748   C161.040436,1538.000854 159.866791,1536.922241 156.891617,1536.965942   C149.061981,1537.081299 141.227737,1537.099854 133.399002,1536.956665   C130.230194,1536.898804 128.946579,1537.940063 128.956055,1541.251343   C129.039490,1570.410400 129.038986,1599.569946 128.956268,1628.729004   C128.946945,1632.020386 130.190445,1633.112305 133.379471,1633.043701   C140.374420,1632.892944 147.374908,1632.998901 155.331543,1633.000000  M161.000000,2659.500000   C160.999649,2649.670654 160.830246,2639.836914 161.080460,2630.014160   C161.183517,2625.968262 159.718475,2624.810059 155.862930,2624.931641   C148.373428,2625.167725 140.869278,2625.103271 133.375275,2624.955811   C130.183136,2624.892822 128.947083,2625.986084 128.956375,2629.273438   C129.038818,2658.427979 129.039093,2687.582520 128.956223,2716.737061   C128.946854,2720.035156 130.204254,2721.107910 133.385941,2721.043945   C140.713272,2720.896484 148.055359,2720.772217 155.372330,2721.085449   C159.715561,2721.271240 161.152313,2719.950439 161.095978,2715.476318   C160.865280,2697.153320 160.999878,2678.825928 161.000000,2659.500000  M129.000000,1004.500000   C129.000137,1020.160095 129.097351,1035.821167 128.931900,1051.479614   C128.890732,1055.376221 129.711456,1057.272461 134.131226,1057.085693   C141.614792,1056.769775 149.123245,1056.897461 156.617233,1057.043823   C159.801239,1057.105957 161.053101,1056.028442 161.043747,1052.733643   C160.960968,1023.579407 160.961060,994.424744 161.043686,965.270508   C161.053009,961.979980 159.809708,960.893799 156.621384,960.956238   C149.127426,961.103149 141.623322,961.168762 134.133926,960.931824   C130.273758,960.809570 128.847015,961.979370 128.919250,966.017151   C129.142700,978.507874 129.000351,991.005249 129.000000,1004.500000  M161.000000,840.500000   C160.999863,818.509216 160.885361,796.517273 161.094910,774.528503   C161.137466,770.062927 159.729568,768.607727 155.375229,768.927307   C150.901215,769.255676 146.384338,769.000000 141.886230,769.000000   C129.000000,769.000000 128.999969,769.000000 128.999985,781.754761   C129.000046,807.577271 129.110382,833.400696 128.899078,859.221436   C128.860794,863.900146 130.327774,865.299011 134.873184,865.087891   C142.021454,864.755859 149.199463,864.875427 156.358765,865.052002   C159.757980,865.135803 161.172806,864.048706 161.055878,860.490112   C160.848083,854.166321 160.999084,847.830688 161.000000,840.500000  M161.000000,3419.500000   C160.999664,3412.336182 160.796265,3405.164551 161.077911,3398.011963   C161.237579,3393.956543 159.710510,3392.811279 155.859695,3392.932129   C148.370132,3393.167236 140.865997,3393.103760 133.372009,3392.956055   C130.176483,3392.893066 128.947128,3393.992920 128.956406,3397.276855   C129.038712,3426.431396 129.039139,3455.585938 128.956207,3484.740479   C128.946808,3488.041748 130.210709,3489.107666 133.389206,3489.043945   C140.716553,3488.896729 148.058670,3488.771729 155.375565,3489.085693   C159.723618,3489.272461 161.140961,3487.941162 161.095245,3483.473145   C160.880417,3462.483887 160.999878,3441.491455 161.000000,3419.500000  M129.000000,516.500000   C129.000351,524.330078 129.194946,532.166870 128.921021,539.987366   C128.779037,544.040771 130.288773,545.188538 134.139786,545.067688   C141.629303,544.832825 149.133347,544.896423 156.627289,545.043884   C159.821548,545.106750 161.052887,544.008179 161.043594,540.723572   C160.961212,511.569305 160.960800,482.414673 161.043793,453.260406   C161.053192,449.959625 159.789780,448.892792 156.611313,448.956512   C149.284027,449.103455 141.941986,449.228271 134.625137,448.914642   C130.278229,448.728271 128.856567,450.057251 128.904602,454.526550   C129.123047,474.849030 129.000137,495.175171 129.000000,516.500000  M129.000000,3283.500488   C129.000870,3297.159668 129.054794,3310.819092 128.961609,3324.477783   C128.940887,3327.513428 129.677078,3329.117676 133.125732,3329.046875   C141.117981,3328.882568 149.116486,3328.938721 157.111206,3329.023682   C159.829697,3329.052734 161.030106,3328.059814 161.021561,3325.241211   C160.964432,3306.418213 160.964722,3287.595215 161.021912,3268.772217   C161.030457,3265.964844 159.853851,3264.947021 157.124786,3264.976074   C149.130081,3265.061523 141.131592,3265.116699 133.139297,3264.953125   C129.705688,3264.883301 128.857224,3266.454346 128.964096,3269.509766   C129.115417,3273.835449 129.000900,3278.170166 129.000000,3283.500488  M158.142471,1121.033813   C149.809967,1121.024170 141.476486,1121.084229 133.145477,1120.967529   C130.206863,1120.926514 128.951233,1121.926880 128.964874,1125.005859   C129.047577,1143.670532 129.047729,1162.336182 128.964859,1181.000732   C128.951157,1184.086182 130.220413,1185.075073 133.152252,1185.032837   C140.816666,1184.922241 148.487869,1184.849731 156.147995,1185.063232   C159.827942,1185.165649 161.095474,1183.929932 161.065247,1180.199219   C160.918060,1162.035156 161.045242,1143.869019 160.914078,1125.704834   C160.903061,1124.177490 159.698593,1122.658936 158.142471,1121.033813  M129.007507,1309.217163   C128.785538,1312.017578 130.130264,1313.052979 132.867264,1313.023804   C140.864456,1312.938354 148.864182,1312.921387 156.860748,1313.032959   C159.804382,1313.074097 161.048676,1312.062256 161.035080,1308.989014   C160.952576,1290.326904 160.952408,1271.664307 161.035110,1253.002319   C161.048767,1249.921143 159.787323,1248.923462 156.852066,1248.967163   C149.355515,1249.079102 141.849182,1249.194824 134.360672,1248.923828   C130.248444,1248.775146 128.872971,1250.102417 128.918076,1254.291992   C129.111862,1272.285645 129.001144,1290.282715 129.007507,1309.217163  M129.138763,1471.049927   C130.161484,1471.691528 131.174591,1472.871460 132.208389,1472.890015   C140.704575,1473.041382 149.204865,1472.939941 157.703369,1472.996582   C160.883499,1473.017822 161.009201,1470.984741 161.006851,1468.645752   C160.988388,1450.314453 160.908279,1431.982422 161.069672,1413.652466   C161.104080,1409.744873 159.506027,1408.854980 156.000107,1408.944336   C148.672333,1409.131104 141.328690,1409.203247 134.007034,1408.921021   C129.940384,1408.764526 128.898865,1410.313721 128.932358,1414.146851   C129.095383,1432.809937 129.023804,1451.475220 129.138763,1471.049927  M138.548981,3169.000000   C144.546249,3168.999023 150.546158,3168.891846 156.539703,3169.040771   C159.647156,3169.117920 161.065018,3168.187012 161.045700,3164.811768   C160.939972,3146.320557 160.945480,3127.828613 161.043823,3109.337402   C161.060959,3106.113525 159.944717,3104.890381 156.688904,3104.954834   C149.028778,3105.107178 141.358505,3105.166016 133.702454,3104.931885   C129.849442,3104.813965 128.915558,3106.388184 128.941284,3109.947021   C129.071320,3127.937744 129.097153,3145.931152 128.925583,3163.921143   C128.888062,3167.856201 130.119522,3169.522705 134.071838,3169.021973   C135.219559,3168.876709 136.401260,3168.999756 138.548981,3169.000000  M160.861343,2978.950439   C159.838760,2978.308838 158.825760,2977.128662 157.792068,2977.110352   C149.295776,2976.958984 140.795395,2977.060791 132.296799,2977.003418   C129.116165,2976.982178 128.990829,2979.014893 128.993179,2981.353516   C129.011566,2999.685059 129.091675,3018.017334 128.930344,3036.347412   C128.895950,3040.254395 130.492584,3041.145508 133.999329,3041.056152   C141.327148,3040.869141 148.670898,3040.796875 155.992599,3041.079346   C160.059357,3041.236328 161.101151,3039.687256 161.067657,3035.854004   C160.904633,3017.190674 160.976196,2998.525146 160.861343,2978.950439  M129.000000,3222.468750   C129.000122,3224.134033 129.183167,3225.823975 128.965179,3227.460205   C128.371368,3231.917725 130.249298,3233.275635 134.611572,3233.086670   C141.925568,3232.770020 149.265121,3232.898682 156.589920,3233.042969   C159.744919,3233.104980 161.112381,3232.090820 161.045731,3228.763428   C160.888977,3220.939209 160.891800,3213.107910 161.045242,3205.283447   C161.109558,3202.003418 159.837860,3200.894043 156.636642,3200.955566   C148.978729,3201.102783 141.310791,3201.170898 133.657516,3200.931396   C129.751892,3200.809082 128.806549,3202.477295 128.947678,3205.990967   C129.154694,3211.145264 129.000351,3216.314209 129.000000,3222.468750  M129.000000,3559.626709   C129.001175,3566.623291 129.106598,3573.622314 128.956680,3580.615723   C128.888458,3583.797607 129.962463,3585.111572 133.264679,3585.045898   C141.091171,3584.890381 148.924942,3584.889648 156.751389,3585.046143   C160.069733,3585.112305 161.102448,3583.765137 161.043259,3580.599609   C160.900009,3572.939209 160.875549,3565.271729 161.053436,3557.612793   C161.133118,3554.181885 159.987869,3552.850098 156.463211,3552.943604   C149.138565,3553.137939 141.792999,3553.255615 134.479797,3552.906494   C129.927551,3552.689453 128.373337,3554.413086 129.000000,3559.626709  M160.992508,3620.782471   C161.214172,3617.982910 159.870911,3616.946777 157.133530,3616.976318   C149.137161,3617.062012 141.138275,3617.078613 133.142548,3616.967041   C130.202225,3616.926025 128.915939,3617.928223 128.964066,3621.007080   C129.089066,3629.002441 129.089249,3637.001953 128.964050,3644.997314   C128.915771,3648.080322 130.211151,3649.074707 133.146988,3649.033203   C140.976089,3648.922119 148.809662,3648.897461 156.637573,3649.044678   C159.842590,3649.104980 161.111176,3647.991455 161.045273,3644.712402   C160.891312,3637.051514 160.997696,3629.385254 160.992508,3620.782471  M151.451019,1345.000000   C145.455261,1345.000977 139.456909,1345.106812 133.464798,1344.959473   C130.364639,1344.883301 128.884201,1345.798462 128.953720,1349.183350   C129.114410,1357.007812 129.104874,1364.839844 128.955399,1372.664673   C128.893707,1375.894409 130.060760,1377.109375 133.312546,1377.045044   C140.970795,1376.893433 148.639053,1376.834717 156.293259,1377.067505   C160.138138,1377.184448 161.155869,1375.628540 161.058716,1372.057861   C160.859451,1364.735107 160.815140,1357.396606 161.072845,1350.077515   C161.211823,1346.130615 159.875351,1344.479248 155.927307,1344.978516   C154.779846,1345.123657 153.598450,1345.000244 151.451019,1345.000000  M161.000000,2759.622070   C160.945190,2753.014648 160.945190,2753.008301 154.478470,2753.001465   C147.649353,2752.994141 140.816376,2753.137207 133.992722,2752.944336   C130.481308,2752.845215 128.809372,2753.749268 128.931580,2757.656494   C129.170990,2765.310791 129.103226,2772.980225 128.955933,2780.639160   C128.894318,2783.843018 130.008789,2785.109863 133.287094,2785.045654   C141.112579,2784.892090 148.945267,2784.888184 156.770569,2785.046143   C160.107925,2785.113525 161.112579,2783.728516 161.042313,2780.581299   C160.893661,2773.922119 160.998901,2767.257324 161.000000,2759.622070  M158.142517,2529.033936   C149.810257,2529.024414 141.477020,2529.084229 133.146271,2528.967285   C130.208252,2528.926025 128.915756,2529.922363 128.964035,2533.004883   C129.089264,2541.001953 129.089462,2549.003662 128.964020,2557.000732   C128.915588,2560.088379 130.219406,2561.074463 133.151871,2561.033203   C140.982742,2560.922607 148.818130,2560.896240 156.647766,2561.044678   C159.865158,2561.105469 161.108871,2559.968994 161.045166,2556.700439   C160.892548,2548.870850 161.088196,2541.034424 160.907700,2533.206055   C160.876099,2531.835938 159.697449,2530.492188 158.142517,2529.033936  M130.935272,2496.861816   C139.599609,2496.906006 148.264404,2496.913086 156.928024,2497.017334   C159.489105,2497.048096 161.049393,2496.405029 161.017059,2493.420898   C160.926819,2485.088867 161.128952,2476.749512 160.816345,2468.427979   C160.771912,2467.245605 158.542435,2465.208252 157.265610,2465.161377   C149.110184,2464.861328 140.937729,2465.063965 132.772217,2464.976807   C129.958893,2464.946777 128.947723,2466.150879 128.976486,2468.878906   C129.062622,2477.044678 128.971207,2485.211914 129.059204,2493.377441   C129.070648,2494.440186 129.727005,2495.496338 130.935272,2496.861816  M136.593719,1761.000000   C129.003281,1761.012939 129.001297,1761.012939 129.000580,1768.548462   C128.999924,1775.377441 129.061905,1782.207031 128.977386,1789.034912   C128.944519,1791.689697 129.796310,1793.051514 132.682755,1793.020508   C140.843216,1792.933228 149.005814,1792.936646 157.166321,1793.023315   C159.927216,1793.052612 161.053116,1791.961914 161.023285,1789.185913   C160.937363,1781.192017 160.887222,1773.194458 161.046082,1765.202637   C161.112961,1761.838379 159.674667,1760.885620 156.554199,1760.958496   C150.228409,1761.106323 143.896683,1761.000977 136.593719,1761.000000  M133.721069,1728.998535   C141.385239,1728.997681 149.051529,1728.891479 156.712585,1729.045410   C159.992538,1729.111328 161.104279,1727.840820 161.044113,1724.636719   C160.897095,1716.808594 160.921799,1708.974976 161.032776,1701.145752   C161.074387,1698.208984 160.077530,1696.915649 156.995667,1696.963989   C149.000229,1697.089111 141.000259,1697.088989 133.004822,1696.963867   C129.923492,1696.915771 128.926468,1698.208008 128.967239,1701.145264   C129.078186,1709.141235 129.062134,1717.140137 128.976349,1725.136597   C128.946960,1727.876587 129.988663,1729.214233 133.721069,1728.998535  M132.782516,897.007446   C129.982544,896.785522 128.947144,898.129822 128.976395,900.866577   C129.061844,908.862793 129.078354,916.861633 128.967194,924.857178   C128.926331,927.796692 129.927948,929.084106 133.007111,929.036011   C141.002304,928.910950 149.002045,928.910767 156.997238,929.036011   C160.080566,929.084290 161.074234,927.787964 161.032715,924.852783   C160.921982,917.023804 160.897141,909.190430 161.044128,901.362610   C161.104294,898.158142 159.991669,896.888733 156.712158,896.954651   C149.051331,897.108704 141.385269,897.002258 132.782516,897.007446  M160.861282,674.950256   C159.838699,674.308594 158.825714,673.128601 157.792007,673.110229   C149.296295,672.958801 140.796494,673.060425 132.298477,673.003296   C129.119537,672.981995 128.983841,675.011719 128.992676,677.352112   C129.021591,685.017334 129.119217,692.685425 128.948212,700.346924   C128.872620,703.733643 129.929443,705.149414 133.499573,705.057739   C141.159882,704.860901 148.832230,704.861572 156.492599,705.057556   C160.053986,705.148621 161.125336,703.750427 161.051773,700.354797   C160.875031,692.193237 160.975891,684.025696 160.861282,674.950256  M139.531006,609.000000   C137.865662,609.000122 136.175949,609.183167 134.539658,608.965149   C130.081558,608.371155 128.725235,610.250671 128.914001,614.612061   C129.230576,621.925903 129.101349,629.265320 128.957138,636.589966   C128.895035,639.744507 129.909607,641.112488 133.237198,641.045776   C141.061172,640.888916 148.892487,640.891724 156.716583,641.045288   C159.997299,641.109680 161.105377,639.836487 161.043976,636.636230   C160.897049,628.978455 160.829147,621.310730 161.068359,613.657593   C161.190414,609.752563 159.522827,608.806335 156.008728,608.947571   C150.854507,609.154724 145.685730,609.000366 139.531006,609.000000  z"/>
	
	
	<path fill="#8B8B8B" opacity="1.000000" stroke="none" d=" M673.000000,128.531342   C651.867004,129.000000 630.734070,129.000000 609.212891,129.000000   C609.212891,139.647202 609.212891,149.917084 609.212891,160.751251   C598.454041,160.751251 588.059753,160.751251 577.000000,160.751251   C577.000000,1472.899780 577.000000,2784.481201 577.000000,4096.531250   C555.979126,4097.000000 534.958191,4097.000000 513.468628,4097.000000   C513.000000,2787.817139 513.000000,1478.634399 512.998840,169.451630   C512.998779,166.952011 512.981018,164.452408 513.422241,161.480301   C522.645447,161.004761 531.420959,160.867416 540.189087,161.062637   C543.862244,161.144424 545.147339,159.882248 545.061890,156.198441   C544.850891,147.099579 544.962036,137.993225 544.961792,128.428467   C544.987183,119.134346 545.133667,110.298492 544.933105,101.470528   C544.852905,97.940125 546.074280,96.847275 549.529114,96.936981   C557.356628,97.140221 565.195129,96.893784 573.024841,97.048325   C576.093567,97.108887 577.100830,95.985405 577.045959,92.976730   C576.900208,84.979927 576.894470,76.976761 577.048035,68.980255   C577.106873,65.918030 575.996704,64.899094 572.981812,64.953636   C564.985046,65.098305 556.981934,64.897224 548.985352,65.047928   C545.929626,65.105507 544.898254,64.008209 544.953308,60.986965   C545.098938,52.990204 544.897888,44.987080 545.047668,36.990471   C545.104797,33.941048 544.019592,32.897667 540.992065,32.953152   C532.995361,33.099709 524.992188,32.898609 516.995605,33.047443   C513.952637,33.104076 512.907898,32.030384 512.952759,28.997353   C513.090942,19.666714 513.001221,10.332702 513.000000,1.000000   C555.354248,1.000000 597.708435,1.000000 640.531372,1.468657   C641.000000,12.182140 641.000000,22.426966 641.000000,33.000000   C652.098816,33.000000 662.549377,33.000000 673.000000,33.000000   C673.000000,64.687561 673.000000,96.375122 673.000000,128.531342  z"/>
	<path fill="#CDCDCD" opacity="1.000000" stroke="none" d=" M512.531372,1.000000   C513.001221,10.332702 513.090942,19.666714 512.952759,28.997353   C512.907898,32.030384 513.952637,33.104076 516.995605,33.047443   C524.992188,32.898609 532.995361,33.099709 540.992065,32.953152   C544.019592,32.897667 545.104797,33.941048 545.047668,36.990471   C544.897888,44.987080 545.098938,52.990204 544.953308,60.986965   C544.898254,64.008209 545.929626,65.105507 548.985352,65.047928   C556.981934,64.897224 564.985046,65.098305 572.981812,64.953636   C575.996704,64.899094 577.106873,65.918030 577.048035,68.980255   C576.894470,76.976761 576.900208,84.979927 577.045959,92.976730   C577.100830,95.985405 576.093567,97.108887 573.024841,97.048325   C565.195129,96.893784 557.356628,97.140221 549.529114,96.936981   C546.074280,96.847275 544.852905,97.940125 544.933105,101.470528   C545.133667,110.298492 544.987183,119.134346 544.499207,128.465088   C473.020996,128.975418 402.023468,128.981567 331.025909,129.005249   C317.027588,129.009903 303.029266,129.082138 288.560852,129.083405   C213.685196,129.053757 139.279633,129.063934 64.874062,129.074097   C43.895145,129.049393 22.916231,129.024689 1.468657,129.000000   C1.000000,97.312439 1.000000,65.624878 1.468657,33.468658   C12.205314,33.000000 22.473314,33.000000 33.000000,33.000000   C33.000000,21.948914 33.000000,11.474457 33.000000,1.000000   C192.687561,1.000000 352.375122,1.000000 512.531372,1.000000  M65.926964,64.994431   C85.222374,64.996017 104.518311,64.923897 123.812729,65.062866   C127.564903,65.089882 129.243484,64.182884 129.081650,60.050011   C128.789001,52.576168 128.873642,45.079681 129.053528,37.598724   C129.136154,34.162395 127.963348,32.920353 124.461464,32.944237   C106.164948,33.069031 87.866684,33.066677 69.570114,32.945515   C66.106216,32.922577 64.878746,34.094139 64.944687,37.566872   C65.118340,46.712311 65.008713,55.863132 64.072037,65.004044   C55.265030,65.003281 46.456150,65.106842 37.651970,64.948685   C34.288746,64.888268 32.850876,65.906738 32.942703,69.477890   C33.139126,77.116646 33.125111,84.766830 32.946514,92.406471   C32.866241,95.840210 34.034065,97.142128 37.536572,97.055717   C45.175732,96.867249 52.825977,96.867020 60.465122,97.055779   C63.969696,97.142372 65.116821,95.835457 65.053818,92.405052   C64.885994,83.268753 64.991409,74.127426 65.926964,64.994431  z"/>
	
	
	<path fill="#969696" opacity="1.000000" stroke="none" d=" M289.030945,129.123199   C303.029266,129.082138 317.027588,129.009903 331.025909,129.005249   C402.023468,128.981567 473.020996,128.975418 544.481140,128.926514   C544.962036,137.993225 544.850891,147.099579 545.061890,156.198441   C545.147339,159.882248 543.862244,161.144424 540.189087,161.062637   C531.420959,160.867416 522.645447,161.004761 513.397217,161.013458   C438.601593,160.996597 364.281616,160.974106 289.486542,160.457336   C289.017944,149.683121 289.024445,139.403152 289.030945,129.123199  z"/>
	<path fill="#A0A0A0" opacity="1.000000" stroke="none" d=" M288.560852,129.083405   C289.024445,139.403152 289.017944,149.683121 289.021210,160.419937   C252.429047,160.917862 215.827148,160.969452 179.225204,160.996536   C152.105576,161.016602 124.985909,161.004807 97.392395,161.011902   C86.482742,161.016617 76.046936,161.016617 64.981125,161.016617   C64.981125,150.459732 64.981125,140.228119 64.927597,129.535309   C139.279633,129.063934 213.685196,129.053757 288.560852,129.083405  z"/>
	<path fill="#E3E3E3" opacity="1.000000" stroke="none" d=" M129.000000,3938.000000   C129.000351,3928.335938 129.178635,3919.166504 128.919479,3910.009766   C128.804703,3905.954346 130.293961,3904.801514 134.143082,3904.932861   C141.133011,3905.171875 148.148834,3905.247314 155.130798,3904.911377   C159.685623,3904.692627 161.116486,3906.114990 161.097931,3910.783447   C160.930344,3952.937988 161.000015,3995.093262 160.999954,4037.248535   C160.999939,4044.913086 160.840607,4052.582520 161.066025,4060.240479   C161.177475,4064.026123 159.739761,4065.168213 156.107483,4065.061279   C148.948975,4064.850586 141.769623,4064.768799 134.618942,4065.085938   C130.261169,4065.279297 128.880188,4063.923828 128.906860,4059.466797   C129.086273,4029.475830 129.000122,3999.483643 129.000015,3969.491699   C128.999985,3959.161133 129.000000,3948.830566 129.000000,3938.000000  z"/>
	<path fill="#E3E3E3" opacity="1.000000" stroke="none" d=" M161.000000,2072.000000   C161.000000,2115.821533 161.001831,2159.143311 160.997986,2202.464844   C160.997406,2208.987061 160.985092,2208.991943 154.387848,2208.998535   C148.056229,2209.005127 141.704819,2208.692627 135.399307,2209.098145   C130.406494,2209.419434 128.852539,2207.921875 128.881714,2202.744629   C129.099472,2164.089600 128.999924,2125.433105 129.000046,2086.776855   C129.000092,2075.779785 129.123520,2064.780762 128.933456,2053.787109   C128.868652,2050.038330 130.199707,2048.833496 133.864288,2048.937256   C141.356247,2049.149658 148.861206,2049.121094 156.355148,2048.947510   C159.751282,2048.868896 161.181046,2049.944092 161.055389,2053.506836   C160.844086,2059.497803 160.999084,2065.501709 161.000000,2072.000000  z"/>
	<path fill="#E3E3E3" opacity="1.000000" stroke="none" d=" M129.000000,271.000000   C129.000137,246.506638 129.107040,222.512360 128.904922,198.520706   C128.867203,194.043091 130.292786,192.709106 134.632538,192.916718   C141.282135,193.234818 147.977188,193.308502 154.616806,192.899338   C159.633804,192.590149 161.143494,194.119110 161.116837,199.271652   C160.906448,239.925980 161.000076,280.581909 160.999939,321.237335   C160.999908,330.234833 160.856339,339.235687 161.066605,348.228271   C161.154755,351.998077 159.765488,353.169586 156.119492,353.061371   C148.961121,352.848938 141.781982,352.771149 134.631027,353.084717   C130.290497,353.275085 128.870544,351.953613 128.905273,347.478180   C129.101852,322.153412 129.000137,296.826294 129.000000,271.000000  z"/>
	<path fill="#E3E3E3" opacity="1.000000" stroke="none" d=" M129.000000,3818.000000   C129.000122,3795.174072 129.113770,3772.846924 128.904755,3750.522949   C128.862854,3746.048828 130.286926,3744.729004 134.629196,3744.914307   C141.946808,3745.227051 149.289474,3745.104248 156.617401,3744.956299   C159.803009,3744.892090 161.049072,3745.972656 161.043030,3749.266602   C160.969955,3789.086914 160.970078,3828.907227 161.042984,3868.727539   C161.048996,3872.015625 159.814484,3873.106445 156.623276,3873.043945   C149.128632,3872.896484 141.619476,3872.770264 134.135193,3873.085938   C129.719330,3873.271973 128.892807,3871.384277 128.931686,3867.483154   C129.094437,3851.156982 129.000122,3834.827881 129.000000,3818.000000  z"/>
	<path fill="#E3E3E3" opacity="1.000000" stroke="none" d=" M129.000000,1935.000000   C129.000351,1921.004517 129.134995,1907.506836 128.919067,1894.014893   C128.854401,1889.973511 130.280579,1888.810547 134.136871,1888.932007   C141.626968,1889.167969 149.131683,1889.103271 156.626266,1888.956055   C159.819702,1888.893311 161.048981,1889.990479 161.042969,1893.276001   C160.970093,1933.095947 160.969864,1972.916016 161.043091,2012.735962   C161.049149,2016.033447 159.796097,2017.107422 156.614273,2017.043701   C149.286362,2016.896362 141.943741,2016.771851 134.626221,2017.085205   C130.280121,2017.271484 128.871002,2015.942749 128.905548,2011.473999   C129.101425,1986.150513 129.000137,1960.824951 129.000000,1935.000000  z"/>
	<path fill="#E3E3E3" opacity="1.000000" stroke="none" d=" M161.000000,2349.000000   C160.999863,2364.827148 160.843521,2380.156738 161.096695,2395.479492   C161.170761,2399.961426 159.706543,2401.270020 155.368637,2401.085449   C148.051575,2400.773438 140.709564,2400.895996 133.382248,2401.043701   C130.196808,2401.108154 128.946945,2400.027588 128.956299,2396.733398   C129.039001,2367.578857 129.038925,2338.424316 128.956329,2309.269775   C128.947006,2305.978760 130.190460,2304.893066 133.378952,2304.955811   C140.872986,2305.102783 148.377167,2305.168701 155.866608,2304.931396   C159.728012,2304.809082 161.150055,2305.980713 161.080673,2310.017334   C160.860245,2322.841553 160.999664,2335.671875 161.000000,2349.000000  z"/>
	<path fill="#E3E3E3" opacity="1.000000" stroke="none" d=" M161.000000,2867.000000   C160.999664,2880.994385 160.865768,2894.491211 161.080551,2907.982178   C161.144791,2912.016602 159.730209,2913.191162 155.867432,2913.068604   C148.378021,2912.830811 140.873810,2912.896973 133.379776,2913.043945   C130.192078,2913.106201 128.946976,2912.022705 128.956299,2908.730957   C129.038925,2879.576416 129.038971,2850.421875 128.956314,2821.267334   C128.946976,2817.973877 130.195297,2816.893799 133.381409,2816.956055   C140.875443,2817.102783 148.379684,2817.169922 155.869064,2816.931396   C159.734390,2816.808594 161.135895,2817.988281 161.080276,2822.019531   C160.875748,2836.843750 160.999664,2851.672852 161.000000,2867.000000  z"/>
	<path fill="#E3E3E3" opacity="1.000000" stroke="none" d=" M154.852341,1633.000000   C147.374908,1632.998901 140.374420,1632.892944 133.379471,1633.043701   C130.190445,1633.112305 128.946945,1632.020386 128.956268,1628.729004   C129.038986,1599.569946 129.039490,1570.410400 128.956055,1541.251343   C128.946579,1537.940063 130.230194,1536.898804 133.399002,1536.956665   C141.227737,1537.099854 149.061981,1537.081299 156.891617,1536.965942   C159.866791,1536.922241 161.040436,1538.000854 161.033600,1541.041748   C160.967697,1570.367554 160.941574,1599.693726 161.048141,1629.019165   C161.064819,1633.608887 158.135193,1632.976440 154.852341,1633.000000  z"/>
	<path fill="#E3E3E3" opacity="1.000000" stroke="none" d=" M161.000000,2660.000000   C160.999878,2678.825928 160.865280,2697.153320 161.095978,2715.476318   C161.152313,2719.950439 159.715561,2721.271240 155.372330,2721.085449   C148.055359,2720.772217 140.713272,2720.896484 133.385941,2721.043945   C130.204254,2721.107910 128.946854,2720.035156 128.956223,2716.737061   C129.039093,2687.582520 129.038818,2658.427979 128.956375,2629.273438   C128.947083,2625.986084 130.183136,2624.892822 133.375275,2624.955811   C140.869278,2625.103271 148.373428,2625.167725 155.862930,2624.931641   C159.718475,2624.810059 161.183517,2625.968262 161.080460,2630.014160   C160.830246,2639.836914 160.999649,2649.670654 161.000000,2660.000000  z"/>
	<path fill="#E3E3E3" opacity="1.000000" stroke="none" d=" M129.000000,1004.000000   C129.000351,991.005249 129.142700,978.507874 128.919250,966.017151   C128.847015,961.979370 130.273758,960.809570 134.133926,960.931824   C141.623322,961.168762 149.127426,961.103149 156.621384,960.956238   C159.809708,960.893799 161.053009,961.979980 161.043686,965.270508   C160.961060,994.424744 160.960968,1023.579407 161.043747,1052.733643   C161.053101,1056.028442 159.801239,1057.105957 156.617233,1057.043823   C149.123245,1056.897461 141.614792,1056.769775 134.131226,1057.085693   C129.711456,1057.272461 128.890732,1055.376221 128.931900,1051.479614   C129.097351,1035.821167 129.000137,1020.160095 129.000000,1004.000000  z"/>
	<path fill="#E3E3E3" opacity="1.000000" stroke="none" d=" M161.000000,841.000000   C160.999084,847.830688 160.848083,854.166321 161.055878,860.490112   C161.172806,864.048706 159.757980,865.135803 156.358765,865.052002   C149.199463,864.875427 142.021454,864.755859 134.873184,865.087891   C130.327774,865.299011 128.860794,863.900146 128.899078,859.221436   C129.110382,833.400696 129.000046,807.577271 128.999985,781.754761   C128.999969,769.000000 129.000000,769.000000 141.886230,769.000000   C146.384338,769.000000 150.901215,769.255676 155.375229,768.927307   C159.729568,768.607727 161.137466,770.062927 161.094910,774.528503   C160.885361,796.517273 160.999863,818.509216 161.000000,841.000000  z"/>
	<path fill="#E3E3E3" opacity="1.000000" stroke="none" d=" M161.000000,3420.000000   C160.999878,3441.491455 160.880417,3462.483887 161.095245,3483.473145   C161.140961,3487.941162 159.723618,3489.272461 155.375565,3489.085693   C148.058670,3488.771729 140.716553,3488.896729 133.389206,3489.043945   C130.210709,3489.107666 128.946808,3488.041748 128.956207,3484.740479   C129.039139,3455.585938 129.038712,3426.431396 128.956406,3397.276855   C128.947128,3393.992920 130.176483,3392.893066 133.372009,3392.956055   C140.865997,3393.103760 148.370132,3393.167236 155.859695,3392.932129   C159.710510,3392.811279 161.237579,3393.956543 161.077911,3398.011963   C160.796265,3405.164551 160.999664,3412.336182 161.000000,3420.000000  z"/>
	<path fill="#E3E3E3" opacity="1.000000" stroke="none" d=" M129.000000,516.000000   C129.000137,495.175171 129.123047,474.849030 128.904602,454.526550   C128.856567,450.057251 130.278229,448.728271 134.625137,448.914642   C141.941986,449.228271 149.284027,449.103455 156.611313,448.956512   C159.789780,448.892792 161.053192,449.959625 161.043793,453.260406   C160.960800,482.414673 160.961212,511.569305 161.043594,540.723572   C161.052887,544.008179 159.821548,545.106750 156.627289,545.043884   C149.133347,544.896423 141.629303,544.832825 134.139786,545.067688   C130.288773,545.188538 128.779037,544.040771 128.921021,539.987366   C129.194946,532.166870 129.000351,524.330078 129.000000,516.000000  z"/>
	<path fill="#E3E3E3" opacity="1.000000" stroke="none" d=" M129.000000,3283.000977   C129.000900,3278.170166 129.115417,3273.835449 128.964096,3269.509766   C128.857224,3266.454346 129.705688,3264.883301 133.139297,3264.953125   C141.131592,3265.116699 149.130081,3265.061523 157.124786,3264.976074   C159.853851,3264.947021 161.030457,3265.964844 161.021912,3268.772217   C160.964722,3287.595215 160.964432,3306.418213 161.021561,3325.241211   C161.030106,3328.059814 159.829697,3329.052734 157.111206,3329.023682   C149.116486,3328.938721 141.117981,3328.882568 133.125732,3329.046875   C129.677078,3329.117676 128.940887,3327.513428 128.961609,3324.477783   C129.054794,3310.819092 129.000870,3297.159668 129.000000,3283.000977  z"/>
	<path fill="#E3E3E3" opacity="1.000000" stroke="none" d=" M158.595520,1121.084961   C159.698593,1122.658936 160.903061,1124.177490 160.914078,1125.704834   C161.045242,1143.869019 160.918060,1162.035156 161.065247,1180.199219   C161.095474,1183.929932 159.827942,1185.165649 156.147995,1185.063232   C148.487869,1184.849731 140.816666,1184.922241 133.152252,1185.032837   C130.220413,1185.075073 128.951157,1184.086182 128.964859,1181.000732   C129.047729,1162.336182 129.047577,1143.670532 128.964874,1125.005859   C128.951233,1121.926880 130.206863,1120.926514 133.145477,1120.967529   C141.476486,1121.084229 149.809967,1121.024170 158.595520,1121.084961  z"/>
	<path fill="#E3E3E3" opacity="1.000000" stroke="none" d=" M129.004440,1308.747803   C129.001144,1290.282715 129.111862,1272.285645 128.918076,1254.291992   C128.872971,1250.102417 130.248444,1248.775146 134.360672,1248.923828   C141.849182,1249.194824 149.355515,1249.079102 156.852066,1248.967163   C159.787323,1248.923462 161.048767,1249.921143 161.035110,1253.002319   C160.952408,1271.664307 160.952576,1290.326904 161.035080,1308.989014   C161.048676,1312.062256 159.804382,1313.074097 156.860748,1313.032959   C148.864182,1312.921387 140.864456,1312.938354 132.867264,1313.023804   C130.130264,1313.052979 128.785538,1312.017578 129.004440,1308.747803  z"/>
	<path fill="#E3E3E3" opacity="1.000000" stroke="none" d=" M129.087021,1470.594727   C129.023804,1451.475220 129.095383,1432.809937 128.932358,1414.146851   C128.898865,1410.313721 129.940384,1408.764526 134.007034,1408.921021   C141.328690,1409.203247 148.672333,1409.131104 156.000107,1408.944336   C159.506027,1408.854980 161.104080,1409.744873 161.069672,1413.652466   C160.908279,1431.982422 160.988388,1450.314453 161.006851,1468.645752   C161.009201,1470.984741 160.883499,1473.017822 157.703369,1472.996582   C149.204865,1472.939941 140.704575,1473.041382 132.208389,1472.890015   C131.174591,1472.871460 130.161484,1471.691528 129.087021,1470.594727  z"/>
	<path fill="#E3E3E3" opacity="1.000000" stroke="none" d=" M138.058197,3169.000000   C136.401260,3168.999756 135.219559,3168.876709 134.071838,3169.021973   C130.119522,3169.522705 128.888062,3167.856201 128.925583,3163.921143   C129.097153,3145.931152 129.071320,3127.937744 128.941284,3109.947021   C128.915558,3106.388184 129.849442,3104.813965 133.702454,3104.931885   C141.358505,3105.166016 149.028778,3105.107178 156.688904,3104.954834   C159.944717,3104.890381 161.060959,3106.113525 161.043823,3109.337402   C160.945480,3127.828613 160.939972,3146.320557 161.045700,3164.811768   C161.065018,3168.187012 159.647156,3169.117920 156.539703,3169.040771   C150.546158,3168.891846 144.546249,3168.999023 138.058197,3169.000000  z"/>
	<path fill="#E3E3E3" opacity="1.000000" stroke="none" d=" M160.913040,2979.405518   C160.976196,2998.525146 160.904633,3017.190674 161.067657,3035.854004   C161.101151,3039.687256 160.059357,3041.236328 155.992599,3041.079346   C148.670898,3040.796875 141.327148,3040.869141 133.999329,3041.056152   C130.492584,3041.145508 128.895950,3040.254395 128.930344,3036.347412   C129.091675,3018.017334 129.011566,2999.685059 128.993179,2981.353516   C128.990829,2979.014893 129.116165,2976.982178 132.296799,2977.003418   C140.795395,2977.060791 149.295776,2976.958984 157.792068,2977.110352   C158.825760,2977.128662 159.838760,2978.308838 160.913040,2979.405518  z"/>
	<path fill="#E3E3E3" opacity="1.000000" stroke="none" d=" M129.000000,3221.972656   C129.000351,3216.314209 129.154694,3211.145264 128.947678,3205.990967   C128.806549,3202.477295 129.751892,3200.809082 133.657516,3200.931396   C141.310791,3201.170898 148.978729,3201.102783 156.636642,3200.955566   C159.837860,3200.894043 161.109558,3202.003418 161.045242,3205.283447   C160.891800,3213.107910 160.888977,3220.939209 161.045731,3228.763428   C161.112381,3232.090820 159.744919,3233.104980 156.589920,3233.042969   C149.265121,3232.898682 141.925568,3232.770020 134.611572,3233.086670   C130.249298,3233.275635 128.371368,3231.917725 128.965179,3227.460205   C129.183167,3225.823975 129.000122,3224.134033 129.000000,3221.972656  z"/>
	<path fill="#E3E3E3" opacity="1.000000" stroke="none" d=" M129.000092,3559.148682   C128.373337,3554.413086 129.927551,3552.689453 134.479797,3552.906494   C141.792999,3553.255615 149.138565,3553.137939 156.463211,3552.943604   C159.987869,3552.850098 161.133118,3554.181885 161.053436,3557.612793   C160.875549,3565.271729 160.900009,3572.939209 161.043259,3580.599609   C161.102448,3583.765137 160.069733,3585.112305 156.751389,3585.046143   C148.924942,3584.889648 141.091171,3584.890381 133.264679,3585.045898   C129.962463,3585.111572 128.888458,3583.797607 128.956680,3580.615723   C129.106598,3573.622314 129.001175,3566.623291 129.000092,3559.148682  z"/>
	<path fill="#E3E3E3" opacity="1.000000" stroke="none" d=" M160.995575,3621.251953   C160.997696,3629.385254 160.891312,3637.051514 161.045273,3644.712402   C161.111176,3647.991455 159.842590,3649.104980 156.637573,3649.044678   C148.809662,3648.897461 140.976089,3648.922119 133.146988,3649.033203   C130.211151,3649.074707 128.915771,3648.080322 128.964050,3644.997314   C129.089249,3637.001953 129.089066,3629.002441 128.964066,3621.007080   C128.915939,3617.928223 130.202225,3616.926025 133.142548,3616.967041   C141.138275,3617.078613 149.137161,3617.062012 157.133530,3616.976318   C159.870911,3616.946777 161.214172,3617.982910 160.995575,3621.251953  z"/>
	<path fill="#E3E3E3" opacity="1.000000" stroke="none" d=" M151.941803,1345.000000   C153.598450,1345.000244 154.779846,1345.123657 155.927307,1344.978516   C159.875351,1344.479248 161.211823,1346.130615 161.072845,1350.077515   C160.815140,1357.396606 160.859451,1364.735107 161.058716,1372.057861   C161.155869,1375.628540 160.138138,1377.184448 156.293259,1377.067505   C148.639053,1376.834717 140.970795,1376.893433 133.312546,1377.045044   C130.060760,1377.109375 128.893707,1375.894409 128.955399,1372.664673   C129.104874,1364.839844 129.114410,1357.007812 128.953720,1349.183350   C128.884201,1345.798462 130.364639,1344.883301 133.464798,1344.959473   C139.456909,1345.106812 145.455261,1345.000977 151.941803,1345.000000  z"/>
	<path fill="#E3E3E3" opacity="1.000000" stroke="none" d=" M161.000000,2760.108398   C160.998901,2767.257324 160.893661,2773.922119 161.042313,2780.581299   C161.112579,2783.728516 160.107925,2785.113525 156.770569,2785.046143   C148.945267,2784.888184 141.112579,2784.892090 133.287094,2785.045654   C130.008789,2785.109863 128.894318,2783.843018 128.955933,2780.639160   C129.103226,2772.980225 129.170990,2765.310791 128.931580,2757.656494   C128.809372,2753.749268 130.481308,2752.845215 133.992722,2752.944336   C140.816376,2753.137207 147.649353,2752.994141 154.478470,2753.001465   C160.945190,2753.008301 160.945190,2753.014648 161.000000,2760.108398  z"/>
	<path fill="#E3E3E3" opacity="1.000000" stroke="none" d=" M158.595535,2529.084961   C159.697449,2530.492188 160.876099,2531.835938 160.907700,2533.206055   C161.088196,2541.034424 160.892548,2548.870850 161.045166,2556.700439   C161.108871,2559.968994 159.865158,2561.105469 156.647766,2561.044678   C148.818130,2560.896240 140.982742,2560.922607 133.151871,2561.033203   C130.219406,2561.074463 128.915588,2560.088379 128.964020,2557.000732   C129.089462,2549.003662 129.089264,2541.001953 128.964035,2533.004883   C128.915756,2529.922363 130.208252,2528.926025 133.146271,2528.967285   C141.477020,2529.084229 149.810257,2529.024414 158.595535,2529.084961  z"/>
	<path fill="#E3E3E3" opacity="1.000000" stroke="none" d=" M130.509964,2496.708496   C129.727005,2495.496338 129.070648,2494.440186 129.059204,2493.377441   C128.971207,2485.211914 129.062622,2477.044678 128.976486,2468.878906   C128.947723,2466.150879 129.958893,2464.946777 132.772217,2464.976807   C140.937729,2465.063965 149.110184,2464.861328 157.265610,2465.161377   C158.542435,2465.208252 160.771912,2467.245605 160.816345,2468.427979   C161.128952,2476.749512 160.926819,2485.088867 161.017059,2493.420898   C161.049393,2496.405029 159.489105,2497.048096 156.928024,2497.017334   C148.264404,2496.913086 139.599609,2496.906006 130.509964,2496.708496  z"/>
	<path fill="#E3E3E3" opacity="1.000000" stroke="none" d=" M137.080566,1761.000000   C143.896683,1761.000977 150.228409,1761.106323 156.554199,1760.958496   C159.674667,1760.885620 161.112961,1761.838379 161.046082,1765.202637   C160.887222,1773.194458 160.937363,1781.192017 161.023285,1789.185913   C161.053116,1791.961914 159.927216,1793.052612 157.166321,1793.023315   C149.005814,1792.936646 140.843216,1792.933228 132.682755,1793.020508   C129.796310,1793.051514 128.944519,1791.689697 128.977386,1789.034912   C129.061905,1782.207031 128.999924,1775.377441 129.000580,1768.548462   C129.001297,1761.012939 129.003281,1761.012939 137.080566,1761.000000  z"/>
	<path fill="#E3E3E3" opacity="1.000000" stroke="none" d=" M133.253387,1728.995605   C129.988663,1729.214233 128.946960,1727.876587 128.976349,1725.136597   C129.062134,1717.140137 129.078186,1709.141235 128.967239,1701.145264   C128.926468,1698.208008 129.923492,1696.915771 133.004822,1696.963867   C141.000259,1697.088989 149.000229,1697.089111 156.995667,1696.963989   C160.077530,1696.915649 161.074387,1698.208984 161.032776,1701.145752   C160.921799,1708.974976 160.897095,1716.808594 161.044113,1724.636719   C161.104279,1727.840820 159.992538,1729.111328 156.712585,1729.045410   C149.051529,1728.891479 141.385239,1728.997681 133.253387,1728.995605  z"/>
	<path fill="#E3E3E3" opacity="1.000000" stroke="none" d=" M133.251923,897.004395   C141.385269,897.002258 149.051331,897.108704 156.712158,896.954651   C159.991669,896.888733 161.104294,898.158142 161.044128,901.362610   C160.897141,909.190430 160.921982,917.023804 161.032715,924.852783   C161.074234,927.787964 160.080566,929.084290 156.997238,929.036011   C149.002045,928.910767 141.002304,928.910950 133.007111,929.036011   C129.927948,929.084106 128.926331,927.796692 128.967194,924.857178   C129.078354,916.861633 129.061844,908.862793 128.976395,900.866577   C128.947144,898.129822 129.982544,896.785522 133.251923,897.004395  z"/>
	<path fill="#E3E3E3" opacity="1.000000" stroke="none" d=" M160.913010,675.405396   C160.975891,684.025696 160.875031,692.193237 161.051773,700.354797   C161.125336,703.750427 160.053986,705.148621 156.492599,705.057556   C148.832230,704.861572 141.159882,704.860901 133.499573,705.057739   C129.929443,705.149414 128.872620,703.733643 128.948212,700.346924   C129.119217,692.685425 129.021591,685.017334 128.992676,677.352112   C128.983841,675.011719 129.119537,672.981995 132.298477,673.003296   C140.796494,673.060425 149.296295,672.958801 157.792007,673.110229   C158.825714,673.128601 159.838699,674.308594 160.913010,675.405396  z"/>
	<path fill="#E3E3E3" opacity="1.000000" stroke="none" d=" M140.027084,609.000000   C145.685730,609.000366 150.854507,609.154724 156.008728,608.947571   C159.522827,608.806335 161.190414,609.752563 161.068359,613.657593   C160.829147,621.310730 160.897049,628.978455 161.043976,636.636230   C161.105377,639.836487 159.997299,641.109680 156.716583,641.045288   C148.892487,640.891724 141.061172,640.888916 133.237198,641.045776   C129.909607,641.112488 128.895035,639.744507 128.957138,636.589966   C129.101349,629.265320 129.230576,621.925903 128.914001,614.612061   C128.725235,610.250671 130.081558,608.371155 134.539658,608.965149   C136.175949,609.183167 137.865662,609.000122 140.027084,609.000000  z"/>
	<path fill="#E3E3E3" opacity="1.000000" stroke="none" d=" M65.011902,65.011810   C65.008713,55.863132 65.118340,46.712311 64.944687,37.566872   C64.878746,34.094139 66.106216,32.922577 69.570114,32.945515   C87.866684,33.066677 106.164948,33.069031 124.461464,32.944237   C127.963348,32.920353 129.136154,34.162395 129.053528,37.598724   C128.873642,45.079681 128.789001,52.576168 129.081650,60.050011   C129.243484,64.182884 127.564903,65.089882 123.812729,65.062866   C104.518311,64.923897 85.222374,64.996017 65.463486,64.997215   C65.000000,65.000000 65.011902,65.011810 65.011902,65.011810  z"/>
	<path fill="#E3E3E3" opacity="1.000000" stroke="none" d=" M64.994095,64.994049   C64.991409,74.127426 64.885994,83.268753 65.053818,92.405052   C65.116821,95.835457 63.969696,97.142372 60.465122,97.055779   C52.825977,96.867020 45.175732,96.867249 37.536572,97.055717   C34.034065,97.142128 32.866241,95.840210 32.946514,92.406471   C33.125111,84.766830 33.139126,77.116646 32.942703,69.477890   C32.850876,65.906738 34.288746,64.888268 37.651970,64.948685   C46.456150,65.106842 55.265030,65.003281 64.541969,65.007927   C65.011902,65.011810 65.000000,65.000000 64.994095,64.994049  z"/>
	</svg>