<svg xmlns="http://www.w3.org/2000/svg" xmlns:xlink="http://www.w3.org/1999/xlink" version="1.1" id="Layer_1" x="0px" y="0px" width="100%" viewBox="0 0 1024 2048" enable-background="new 0 0 1024 2048" xml:space="preserve">

	<path fill="#CDCDCD" opacity="1.000000" stroke="none" d=" M257.457947,2049.000000   C256.997284,1430.642456 256.994568,812.284790 257.429047,193.467209   C284.652985,193.004807 311.439697,193.016602 338.226440,192.996521   C375.161011,192.968857 412.095612,192.917160 449.494751,192.917389   C524.280029,192.979050 598.600830,192.999084 672.946533,193.485947   C672.981018,196.452103 672.998779,198.951416 672.998840,201.450729   C673.000061,817.300476 673.000000,1433.150269 673.000000,2049.000000   C555.971985,2049.000000 438.943939,2049.000000 321.457947,2048.531250   C320.999939,2007.596802 320.943909,1967.130615 321.082458,1926.665161   C321.097076,1922.401367 320.063446,1920.666992 315.517242,1920.909302   C308.875061,1921.263306 302.199982,1920.994263 295.538910,1921.001587   C289.013550,1921.008667 289.002411,1921.014526 289.001801,1927.602295   C288.998169,1968.068237 289.000000,2008.534058 289.000000,2049.000000   C278.638641,2049.000000 268.277252,2049.000000 257.457947,2049.000000  M321.000000,233.564301   C320.999939,232.731186 320.893402,231.881836 321.017365,231.067612   C321.753510,226.232590 319.741882,224.635986 314.911102,224.904388   C308.100372,225.282776 301.245697,225.190308 294.424011,224.928574   C290.393433,224.773956 288.662659,225.942749 288.925995,230.232224   C289.241943,235.378250 289.000031,240.558533 289.000031,245.723984   C289.000031,290.213470 289.064178,334.703217 288.904541,379.192139   C288.887939,383.820892 290.250183,385.335815 294.845947,385.088226   C301.325623,384.739105 307.838104,385.004822 314.336578,384.998688   C320.984131,384.992401 320.997314,384.987640 320.997864,378.515076   C321.001770,330.526398 321.000000,282.537720 321.000000,233.564301  M321.000000,524.500000   C320.999664,511.672028 320.860199,498.841644 321.080750,486.017456   C321.150177,481.980499 319.727112,480.809570 315.866425,480.931763   C308.377045,481.168854 300.872925,481.102997 293.378937,480.956238   C290.191010,480.893860 288.946991,481.979187 288.956299,485.270172   C289.038940,514.424377 289.039001,543.579102 288.956238,572.733337   C288.946869,576.027710 290.197754,577.107727 293.382416,577.043579   C300.709686,576.895935 308.051605,576.773071 315.368622,577.085022   C319.706512,577.269897 321.170715,575.960876 321.096680,571.479187   C320.843567,556.156433 320.999878,540.826904 321.000000,524.500000  M311.451630,897.000000   C313.117706,896.999207 314.796631,896.865295 316.447144,897.025146   C319.954163,897.364807 321.063934,895.843994 321.052521,892.401672   C320.956360,863.412292 320.966736,834.422424 321.040680,805.432922   C321.048676,802.302917 320.134979,800.886047 316.783264,800.953918   C308.955963,801.112427 301.121216,801.107788 293.293671,800.954712   C290.020233,800.890686 288.948914,802.150024 288.957611,805.355896   C289.036621,834.512024 289.041260,863.668457 288.955231,892.824524   C288.945251,896.213928 290.380981,897.120972 293.474243,897.039734   C299.134949,896.890930 304.802429,896.999023 311.451630,897.000000  M306.495361,993.000000   C302.163757,993.000916 297.823303,993.172546 293.503265,992.949646   C289.933533,992.765442 288.939026,994.263672 288.949677,997.647583   C289.041077,1026.635742 289.034729,1055.624390 288.958252,1084.612549   C288.949860,1087.786865 289.957001,1089.111084 293.261932,1089.045654   C301.089050,1088.890259 308.923462,1088.889526 316.750549,1089.045776   C320.068176,1089.111938 321.049805,1087.762207 321.041473,1084.600098   C320.964783,1055.445312 320.971649,1026.290161 321.031281,997.135193   C321.037292,994.191589 320.061249,992.823669 316.985077,992.971802   C313.827087,993.123901 310.655945,993.002014 306.495361,993.000000  M291.853760,1569.035522   C290.902924,1570.622559 289.132141,1572.204956 289.122925,1573.797485   C288.955994,1602.625488 289.036804,1631.454956 288.952820,1660.283691   C288.943207,1663.590942 289.793427,1665.155273 293.435516,1665.058838   C301.095642,1664.855957 308.768005,1664.869629 316.429016,1665.055420   C319.913605,1665.140015 321.065002,1663.884644 321.053284,1660.419312   C320.955261,1631.423950 320.949188,1602.428101 321.057281,1573.432739   C321.070831,1569.796875 319.592072,1568.884521 316.281464,1568.951172   C308.452454,1569.109009 300.618164,1569.005371 291.853760,1569.035522  M305.497925,1153.000000   C301.500122,1153.000854 297.497833,1153.118530 293.505951,1152.964966   C290.445953,1152.847168 288.933929,1153.718384 288.953827,1157.142822   C289.062225,1175.798584 289.032898,1194.455566 288.977356,1213.111694   C288.969269,1215.828735 289.940216,1217.052368 292.759918,1217.022461   C300.921173,1216.936157 309.084473,1216.936035 317.245728,1217.022461   C320.070160,1217.052368 321.030701,1215.818604 321.022644,1213.106079   C320.967224,1194.449951 320.958282,1175.793213 321.032043,1157.137085   C321.043671,1154.195679 320.065369,1152.835815 316.988007,1152.970215   C313.496674,1153.122803 309.993439,1153.001953 305.497925,1153.000000  M289.000000,1302.500000   C289.000885,1315.159546 289.058563,1327.819580 288.961334,1340.478271   C288.938019,1343.515747 289.680328,1345.117310 293.126770,1345.046875   C301.118896,1344.883179 309.117249,1344.939087 317.111847,1345.023560   C319.829987,1345.052246 321.030212,1344.058716 321.021637,1341.240112   C320.964447,1322.417603 320.964722,1303.594604 321.021973,1284.772095   C321.030487,1281.963867 319.852081,1280.947266 317.124054,1280.976196   C309.129486,1281.061157 301.131134,1281.116211 293.138977,1280.953125   C289.705658,1280.883179 288.879242,1282.455933 288.962158,1285.510254   C289.106720,1290.836670 289.000885,1296.169800 289.000000,1302.500000  M289.000000,1480.500000   C289.000885,1487.162964 289.147766,1493.830322 288.943665,1500.486938   C288.834747,1504.040405 290.234283,1505.129639 293.636749,1505.052490   C301.295197,1504.879028 308.962067,1504.898438 316.621674,1505.043823   C319.808899,1505.104370 321.063019,1504.021362 321.044861,1500.730103   C320.942871,1482.241089 320.942596,1463.750977 321.044952,1445.261963   C321.063232,1441.962769 319.793274,1440.894653 316.613708,1440.956299   C309.120789,1441.102051 301.617737,1441.169556 294.129517,1440.931519   C290.264252,1440.808716 288.834900,1441.988037 288.919678,1446.020630   C289.154236,1457.176147 289.000336,1468.339600 289.000000,1480.500000  M290.935425,672.861877   C299.599670,672.906067 308.264404,672.913330 316.927917,673.017212   C319.488525,673.047852 321.049408,672.404785 321.017090,669.420471   C320.926788,661.088440 321.129028,652.749451 320.816406,644.428223   C320.771973,643.245789 318.542145,641.208557 317.265198,641.161621   C309.109863,640.861816 300.937531,641.063843 292.772095,640.977051   C289.959412,640.947205 288.947632,642.151123 288.976440,644.879456   C289.062683,653.044922 288.971191,661.212280 289.059143,669.377686   C289.070587,670.440491 289.726990,671.496399 290.935425,672.861877  M295.626831,737.000000   C302.623352,736.998840 309.622131,736.893250 316.615417,737.043396   C319.797791,737.111694 321.111023,736.036621 321.045532,732.735168   C320.890381,724.908752 320.889435,717.075134 321.045715,709.248779   C321.112000,705.930969 319.765320,704.897461 316.599487,704.956665   C308.939331,705.100037 301.271820,705.124573 293.613068,704.946533   C290.181671,704.866760 288.850525,706.013184 288.943756,709.536926   C289.137604,716.861511 289.255829,724.206909 288.907043,731.520020   C288.689972,736.071716 290.412689,737.626831 295.626831,737.000000  M299.531006,929.000000   C297.865662,929.000122 296.175903,929.183167 294.539612,928.965149   C290.081543,928.371155 288.725189,930.250671 288.913940,934.612000   C289.230499,941.925903 289.101288,949.265320 288.957092,956.590027   C288.894989,959.744568 289.909576,961.112488 293.237152,961.045776   C301.061157,960.888855 308.892487,960.891785 316.716614,961.045349   C319.997284,961.109741 321.105408,959.836548 321.044006,956.636292   C320.897095,948.978455 320.829163,941.310730 321.068359,933.657532   C321.190430,929.752441 319.522827,928.806396 316.008789,928.947632   C310.854523,929.154724 305.685760,929.000366 299.531006,929.000000  M289.000214,1403.331299   C288.372314,1407.591675 289.932892,1409.309570 294.481873,1409.093018   C301.794830,1408.744751 309.140106,1408.862549 316.464478,1409.056396   C319.989624,1409.149658 321.133057,1407.815308 321.053436,1404.385498   C320.875641,1396.726929 320.899811,1389.059570 321.043304,1381.399536   C321.102631,1378.232788 320.066803,1376.888184 316.750336,1376.954224   C308.924164,1377.110352 301.090698,1377.109375 293.264465,1376.954346   C289.963013,1376.888916 288.888336,1378.202881 288.956604,1381.384888   C289.106659,1388.378052 289.001160,1395.376709 289.000214,1403.331299  M312.432617,1729.000000   C305.936737,1729.002075 299.440002,1729.065430 292.945343,1728.976929   C290.273071,1728.940674 288.948547,1729.834106 288.979095,1732.702637   C289.066040,1740.863159 289.063324,1749.025879 288.976746,1757.186401   C288.947296,1759.962891 290.073761,1761.053101 292.834229,1761.023438   C300.828217,1760.937744 308.825928,1760.886230 316.817657,1761.046387   C320.203552,1761.114258 321.106812,1759.632690 321.040833,1756.533813   C320.899109,1749.874390 321.000671,1743.209839 320.999512,1736.547363   C320.998230,1729.013062 320.996735,1729.013062 312.432617,1729.000000  M320.998657,1797.715576   C321.365417,1794.411499 320.208435,1792.847290 316.566681,1792.941406   C308.742401,1793.143555 300.908112,1793.083374 293.080444,1792.965210   C290.078217,1792.920044 288.920135,1794.053467 288.965210,1797.068604   C289.084686,1805.062866 289.091187,1813.061401 288.964111,1821.055420   C288.914246,1824.192505 290.327087,1825.068848 293.204468,1825.030884   C301.032562,1824.927368 308.864960,1824.893555 316.691498,1825.045166   C319.948853,1825.108276 321.111328,1823.884766 321.044464,1820.658936   C320.892517,1813.332397 320.998566,1806.000488 320.998657,1797.715576  z"/>
	<path fill="#8B8B8B" opacity="1.000000" stroke="none" d=" M673.468628,2049.000000   C673.000000,1433.150269 673.000061,817.300476 672.998840,201.450729   C672.998779,198.951416 672.981018,196.452103 673.422241,193.480286   C682.645447,193.004745 691.420959,192.867401 700.189087,193.062637   C703.862244,193.144424 705.147278,191.882248 705.061890,188.198441   C704.850891,179.099579 704.962097,169.993225 704.961792,160.428467   C704.987732,150.973846 705.088562,141.979248 704.952026,132.988251   C704.905823,129.942444 705.979309,128.897766 709.005188,128.953217   C716.996399,129.099640 724.994019,128.901627 732.985291,129.046295   C735.999390,129.100876 737.106567,128.079697 737.047974,125.021072   C736.894836,117.030022 736.855042,109.030434 737.061768,101.041794   C737.152649,97.526627 735.568848,96.899277 732.547913,96.954750   C724.889587,97.095390 717.223450,96.864723 709.567627,97.060410   C706.169006,97.147293 704.824219,96.155479 704.932922,92.573006   C705.160034,85.085548 704.832336,77.581032 705.069946,70.094231   C705.190002,66.310776 704.228638,64.717445 700.097595,64.910912   C693.118164,65.237785 686.097473,64.723412 679.122742,65.096931   C674.448425,65.347252 672.649048,64.150749 672.882751,59.123413   C673.284302,50.483391 672.954468,41.809372 672.931641,33.149624   C715.090027,33.118324 757.248413,33.086460 799.406799,33.066555   C799.716187,33.066410 800.025696,33.230049 800.898682,33.475937   C800.898682,43.699608 800.898682,54.091915 800.898682,64.860565   C811.723877,64.860565 821.991760,64.860565 832.628174,64.860565   C832.628174,96.960831 832.628174,128.674591 832.628174,160.778214   C811.690918,160.778214 790.758667,160.778214 769.261841,160.778214   C769.261841,171.533752 769.261841,181.927002 769.261841,192.877014   C758.322876,192.877014 747.930542,192.877014 737.000000,192.877014   C737.000000,811.649536 737.000000,1429.856079 737.000000,2048.531250   C715.979126,2049.000000 694.958191,2049.000000 673.468628,2049.000000  z"/>
	<path fill="#E3E3E3" opacity="1.000000" stroke="none" d=" M289.468658,2049.000000   C289.000000,2008.534058 288.998169,1968.068237 289.001801,1927.602295   C289.002411,1921.014526 289.013550,1921.008667 295.538910,1921.001587   C302.199982,1920.994263 308.875061,1921.263306 315.517242,1920.909302   C320.063446,1920.666992 321.097076,1922.401367 321.082458,1926.665161   C320.943909,1967.130615 320.999939,2007.596802 321.000000,2048.531250   C310.645782,2049.000000 300.291534,2049.000000 289.468658,2049.000000  z"/>
	<path fill="#CDCDCD" opacity="1.000000" stroke="none" d=" M672.471558,33.082481   C672.954468,41.809372 673.284302,50.483391 672.882751,59.123413   C672.649048,64.150749 674.448425,65.347252 679.122742,65.096931   C686.097473,64.723412 693.118164,65.237785 700.097595,64.910912   C704.228638,64.717445 705.190002,66.310776 705.069946,70.094231   C704.832336,77.581032 705.160034,85.085548 704.932922,92.573006   C704.824219,96.155479 706.169006,97.147293 709.567627,97.060410   C717.223450,96.864723 724.889587,97.095390 732.547913,96.954750   C735.568848,96.899277 737.152649,97.526627 737.061768,101.041794   C736.855042,109.030434 736.894836,117.030022 737.047974,125.021072   C737.106567,128.079697 735.999390,129.100876 732.985291,129.046295   C724.994019,128.901627 716.996399,129.099640 709.005188,128.953217   C705.979309,128.897766 704.905823,129.942444 704.952026,132.988251   C705.088562,141.979248 704.987732,150.973846 704.499146,160.465088   C631.020691,160.975418 558.022827,160.982407 485.024994,161.005295   C473.026733,161.009064 461.028503,161.082825 448.560974,161.088440   C373.685852,161.059830 299.280060,161.067032 224.874237,161.074219   C203.753586,161.074219 182.632935,161.074219 161.257111,161.074219   C161.257111,128.946808 161.257111,97.225906 161.257111,65.063919   C171.733856,65.063919 182.136078,65.063919 192.969620,65.063919   C192.969620,54.232368 192.969620,43.829754 192.969620,33.015335   C352.943665,33.015335 512.477600,33.015335 672.471558,33.082481  M225.926971,96.994431   C245.222382,96.996017 264.518311,96.923904 283.812744,97.062851   C287.564850,97.089859 289.243530,96.182938 289.081665,92.050003   C288.788971,84.576164 288.873657,77.079674 289.053558,69.598717   C289.136200,66.162323 287.963287,64.920364 284.461456,64.944237   C266.164948,65.069023 247.866684,65.066658 229.570114,64.945511   C226.106216,64.922577 224.878754,66.094147 224.944702,69.566872   C225.118347,78.712311 225.008713,87.863136 224.072037,97.004044   C215.265045,97.003281 206.456177,97.106827 197.652008,96.948685   C194.288849,96.888275 192.850861,97.906647 192.942703,101.477852   C193.139114,109.116600 193.125092,116.766792 192.946533,124.406433   C192.866272,127.840080 194.033966,129.142151 197.536545,129.055725   C205.175705,128.867233 212.825943,128.867020 220.465103,129.055786   C223.969681,129.142395 225.116806,127.835403 225.053787,124.405045   C224.886002,115.268738 224.991394,106.127426 225.926971,96.994431  z"/>
	<path fill="#A0A0A0" opacity="1.000000" stroke="none" d=" M224.927704,161.535461   C299.280060,161.067032 373.685852,161.059830 448.551453,161.545197   C449.017548,172.317093 449.023865,182.596420 449.030151,192.875732   C412.095612,192.917160 375.161011,192.968857 338.226440,192.996521   C311.439697,193.016602 284.652985,193.004807 257.392395,193.011902   C246.482620,193.016617 236.046677,193.016617 224.981155,193.016617   C224.981155,182.459839 224.981155,172.228256 224.927704,161.535461  z"/>
	<path fill="#969696" opacity="1.000000" stroke="none" d=" M449.494720,192.917389   C449.023865,182.596420 449.017548,172.317093 449.020752,161.581009   C461.028503,161.082825 473.026733,161.009064 485.024994,161.005295   C558.022827,160.982407 631.020691,160.975418 704.481201,160.926514   C704.962097,169.993225 704.850891,179.099579 705.061890,188.198441   C705.147278,191.882248 703.862244,193.144424 700.189087,193.062637   C691.420959,192.867401 682.645447,193.004745 673.397217,193.013458   C598.600830,192.999084 524.280029,192.979050 449.494720,192.917389  z"/>
	<path fill="#E3E3E3" opacity="1.000000" stroke="none" d=" M321.000000,234.056671   C321.000000,282.537720 321.001770,330.526398 320.997864,378.515076   C320.997314,384.987640 320.984131,384.992401 314.336578,384.998688   C307.838104,385.004822 301.325623,384.739105 294.845947,385.088226   C290.250183,385.335815 288.887939,383.820892 288.904541,379.192139   C289.064178,334.703217 289.000031,290.213470 289.000031,245.723984   C289.000031,240.558533 289.241943,235.378250 288.925995,230.232224   C288.662659,225.942749 290.393433,224.773956 294.424011,224.928574   C301.245697,225.190308 308.100372,225.282776 314.911102,224.904388   C319.741882,224.635986 321.753510,226.232590 321.017365,231.067612   C320.893402,231.881836 320.999939,232.731186 321.000000,234.056671  z"/>
	<path fill="#E3E3E3" opacity="1.000000" stroke="none" d=" M321.000000,525.000000   C320.999878,540.826904 320.843567,556.156433 321.096680,571.479187   C321.170715,575.960876 319.706512,577.269897 315.368622,577.085022   C308.051605,576.773071 300.709686,576.895935 293.382416,577.043579   C290.197754,577.107727 288.946869,576.027710 288.956238,572.733337   C289.039001,543.579102 289.038940,514.424377 288.956299,485.270172   C288.946991,481.979187 290.191010,480.893860 293.378937,480.956238   C300.872925,481.102997 308.377045,481.168854 315.866425,480.931763   C319.727112,480.809570 321.150177,481.980499 321.080750,486.017456   C320.860199,498.841644 320.999664,511.672028 321.000000,525.000000  z"/>
	<path fill="#E3E3E3" opacity="1.000000" stroke="none" d=" M310.959351,897.000000   C304.802429,896.999023 299.134949,896.890930 293.474243,897.039734   C290.380981,897.120972 288.945251,896.213928 288.955231,892.824524   C289.041260,863.668457 289.036621,834.512024 288.957611,805.355896   C288.948914,802.150024 290.020233,800.890686 293.293671,800.954712   C301.121216,801.107788 308.955963,801.112427 316.783264,800.953918   C320.134979,800.886047 321.048676,802.302917 321.040680,805.432922   C320.966736,834.422424 320.956360,863.412292 321.052521,892.401672   C321.063934,895.843994 319.954163,897.364807 316.447144,897.025146   C314.796631,896.865295 313.117706,896.999207 310.959351,897.000000  z"/>
	<path fill="#E3E3E3" opacity="1.000000" stroke="none" d=" M306.992950,993.000000   C310.655945,993.002014 313.827087,993.123901 316.985077,992.971802   C320.061249,992.823669 321.037292,994.191589 321.031281,997.135193   C320.971649,1026.290161 320.964783,1055.445312 321.041473,1084.600098   C321.049805,1087.762207 320.068176,1089.111938 316.750549,1089.045776   C308.923462,1088.889526 301.089050,1088.890259 293.261932,1089.045654   C289.957001,1089.111084 288.949860,1087.786865 288.958252,1084.612549   C289.034729,1055.624390 289.041077,1026.635742 288.949677,997.647583   C288.939026,994.263672 289.933533,992.765442 293.503265,992.949646   C297.823303,993.172546 302.163757,993.000916 306.992950,993.000000  z"/>
	<path fill="#E3E3E3" opacity="1.000000" stroke="none" d=" M292.319885,1569.021484   C300.618164,1569.005371 308.452454,1569.109009 316.281464,1568.951172   C319.592072,1568.884521 321.070831,1569.796875 321.057281,1573.432739   C320.949188,1602.428101 320.955261,1631.423950 321.053284,1660.419312   C321.065002,1663.884644 319.913605,1665.140015 316.429016,1665.055420   C308.768005,1664.869629 301.095642,1664.855957 293.435516,1665.058838   C289.793427,1665.155273 288.943207,1663.590942 288.952820,1660.283691   C289.036804,1631.454956 288.955994,1602.625488 289.122925,1573.797485   C289.132141,1572.204956 290.902924,1570.622559 292.319885,1569.021484  z"/>
	<path fill="#E3E3E3" opacity="1.000000" stroke="none" d=" M305.996643,1153.000000   C309.993439,1153.001953 313.496674,1153.122803 316.988007,1152.970215   C320.065369,1152.835815 321.043671,1154.195679 321.032043,1157.137085   C320.958282,1175.793213 320.967224,1194.449951 321.022644,1213.106079   C321.030701,1215.818604 320.070160,1217.052368 317.245728,1217.022461   C309.084473,1216.936035 300.921173,1216.936157 292.759918,1217.022461   C289.940216,1217.052368 288.969269,1215.828735 288.977356,1213.111694   C289.032898,1194.455566 289.062225,1175.798584 288.953827,1157.142822   C288.933929,1153.718384 290.445953,1152.847168 293.505951,1152.964966   C297.497833,1153.118530 301.500122,1153.000854 305.996643,1153.000000  z"/>
	<path fill="#E3E3E3" opacity="1.000000" stroke="none" d=" M289.000000,1302.000000   C289.000885,1296.169800 289.106720,1290.836670 288.962158,1285.510254   C288.879242,1282.455933 289.705658,1280.883179 293.138977,1280.953125   C301.131134,1281.116211 309.129486,1281.061157 317.124054,1280.976196   C319.852081,1280.947266 321.030487,1281.963867 321.021973,1284.772095   C320.964722,1303.594604 320.964447,1322.417603 321.021637,1341.240112   C321.030212,1344.058716 319.829987,1345.052246 317.111847,1345.023560   C309.117249,1344.939087 301.118896,1344.883179 293.126770,1345.046875   C289.680328,1345.117310 288.938019,1343.515747 288.961334,1340.478271   C289.058563,1327.819580 289.000885,1315.159546 289.000000,1302.000000  z"/>
	<path fill="#E3E3E3" opacity="1.000000" stroke="none" d=" M289.000000,1480.000000   C289.000336,1468.339600 289.154236,1457.176147 288.919678,1446.020630   C288.834900,1441.988037 290.264252,1440.808716 294.129517,1440.931519   C301.617737,1441.169556 309.120789,1441.102051 316.613708,1440.956299   C319.793274,1440.894653 321.063232,1441.962769 321.044952,1445.261963   C320.942596,1463.750977 320.942871,1482.241089 321.044861,1500.730103   C321.063019,1504.021362 319.808899,1505.104370 316.621674,1505.043823   C308.962067,1504.898438 301.295197,1504.879028 293.636749,1505.052490   C290.234283,1505.129639 288.834747,1504.040405 288.943665,1500.486938   C289.147766,1493.830322 289.000885,1487.162964 289.000000,1480.000000  z"/>
	<path fill="#E3E3E3" opacity="1.000000" stroke="none" d=" M290.510071,672.708679   C289.726990,671.496399 289.070587,670.440491 289.059143,669.377686   C288.971191,661.212280 289.062683,653.044922 288.976440,644.879456   C288.947632,642.151123 289.959412,640.947205 292.772095,640.977051   C300.937531,641.063843 309.109863,640.861816 317.265198,641.161621   C318.542145,641.208557 320.771973,643.245789 320.816406,644.428223   C321.129028,652.749451 320.926788,661.088440 321.017090,669.420471   C321.049408,672.404785 319.488525,673.047852 316.927917,673.017212   C308.264404,672.913330 299.599670,672.906067 290.510071,672.708679  z"/>
	<path fill="#E3E3E3" opacity="1.000000" stroke="none" d=" M295.148743,736.999939   C290.412689,737.626831 288.689972,736.071716 288.907043,731.520020   C289.255829,724.206909 289.137604,716.861511 288.943756,709.536926   C288.850525,706.013184 290.181671,704.866760 293.613068,704.946533   C301.271820,705.124573 308.939331,705.100037 316.599487,704.956665   C319.765320,704.897461 321.112000,705.930969 321.045715,709.248779   C320.889435,717.075134 320.890381,724.908752 321.045532,732.735168   C321.111023,736.036621 319.797791,737.111694 316.615417,737.043396   C309.622131,736.893250 302.623352,736.998840 295.148743,736.999939  z"/>
	<path fill="#E3E3E3" opacity="1.000000" stroke="none" d=" M300.027100,929.000000   C305.685760,929.000366 310.854523,929.154724 316.008789,928.947632   C319.522827,928.806396 321.190430,929.752441 321.068359,933.657532   C320.829163,941.310730 320.897095,948.978455 321.044006,956.636292   C321.105408,959.836548 319.997284,961.109741 316.716614,961.045349   C308.892487,960.891785 301.061157,960.888855 293.237152,961.045776   C289.909576,961.112488 288.894989,959.744568 288.957092,956.590027   C289.101288,949.265320 289.230499,941.925903 288.913940,934.612000   C288.725189,930.250671 290.081543,928.371155 294.539612,928.965149   C296.175903,929.183167 297.865662,929.000122 300.027100,929.000000  z"/>
	<path fill="#E3E3E3" opacity="1.000000" stroke="none" d=" M289.000122,1402.852173   C289.001160,1395.376709 289.106659,1388.378052 288.956604,1381.384888   C288.888336,1378.202881 289.963013,1376.888916 293.264465,1376.954346   C301.090698,1377.109375 308.924164,1377.110352 316.750336,1376.954224   C320.066803,1376.888184 321.102631,1378.232788 321.043304,1381.399536   C320.899811,1389.059570 320.875641,1396.726929 321.053436,1404.385498   C321.133057,1407.815308 319.989624,1409.149658 316.464478,1409.056396   C309.140106,1408.862549 301.794830,1408.744751 294.481873,1409.093018   C289.932892,1409.309570 288.372314,1407.591675 289.000122,1402.852173  z"/>
	<path fill="#E3E3E3" opacity="1.000000" stroke="none" d=" M312.918823,1729.000000   C320.996735,1729.013062 320.998230,1729.013062 320.999512,1736.547363   C321.000671,1743.209839 320.899109,1749.874390 321.040833,1756.533813   C321.106812,1759.632690 320.203552,1761.114258 316.817657,1761.046387   C308.825928,1760.886230 300.828217,1760.937744 292.834229,1761.023438   C290.073761,1761.053101 288.947296,1759.962891 288.976746,1757.186401   C289.063324,1749.025879 289.066040,1740.863159 288.979095,1732.702637   C288.948547,1729.834106 290.273071,1728.940674 292.945343,1728.976929   C299.440002,1729.065430 305.936737,1729.002075 312.918823,1729.000000  z"/>
	<path fill="#E3E3E3" opacity="1.000000" stroke="none" d=" M320.999207,1798.193115   C320.998566,1806.000488 320.892517,1813.332397 321.044464,1820.658936   C321.111328,1823.884766 319.948853,1825.108276 316.691498,1825.045166   C308.864960,1824.893555 301.032562,1824.927368 293.204468,1825.030884   C290.327087,1825.068848 288.914246,1824.192505 288.964111,1821.055420   C289.091187,1813.061401 289.084686,1805.062866 288.965210,1797.068604   C288.920135,1794.053467 290.078217,1792.920044 293.080444,1792.965210   C300.908112,1793.083374 308.742401,1793.143555 316.566681,1792.941406   C320.208435,1792.847290 321.365417,1794.411499 320.999207,1798.193115  z"/>
	<path fill="#E3E3E3" opacity="1.000000" stroke="none" d=" M225.011902,97.011810   C225.008713,87.863136 225.118347,78.712311 224.944702,69.566872   C224.878754,66.094147 226.106216,64.922577 229.570114,64.945511   C247.866684,65.066658 266.164948,65.069023 284.461456,64.944237   C287.963287,64.920364 289.136200,66.162323 289.053558,69.598717   C288.873657,77.079674 288.788971,84.576164 289.081665,92.050003   C289.243530,96.182938 287.564850,97.089859 283.812744,97.062851   C264.518311,96.923904 245.222382,96.996017 225.463486,96.997215   C225.000000,97.000000 225.011902,97.011810 225.011902,97.011810  z"/>
	<path fill="#E3E3E3" opacity="1.000000" stroke="none" d=" M224.994080,96.994049   C224.991394,106.127426 224.886002,115.268738 225.053787,124.405045   C225.116806,127.835403 223.969681,129.142395 220.465103,129.055786   C212.825943,128.867020 205.175705,128.867233 197.536545,129.055725   C194.033966,129.142151 192.866272,127.840080 192.946533,124.406433   C193.125092,116.766792 193.139114,109.116600 192.942703,101.477852   C192.850861,97.906647 194.288849,96.888275 197.652008,96.948685   C206.456177,97.106827 215.265045,97.003281 224.541962,97.007927   C225.011902,97.011810 225.000000,97.000000 224.994080,96.994049  z"/>
	</svg>